<svg viewBox="0 0 1513 400" xmlns="http://www.w3.org/2000/svg"><g><g><g><g><g><line x1="39.15625" y1="377" x2="34.15625" y2="377" style="visibility: inherit;" fill="rgb(0, 0, 0)" stroke="rgb(204, 204, 204)" stroke-width="1px"></line><line x1="39.15625" y1="345.9403409090909" x2="34.15625" y2="345.9403409090909" style="visibility: inherit;" fill="rgb(0, 0, 0)" stroke="rgb(204, 204, 204)" stroke-width="1px"></line><line x1="39.15625" y1="314.8806818181818" x2="34.15625" y2="314.8806818181818" style="visibility: inherit;" fill="rgb(0, 0, 0)" stroke="rgb(204, 204, 204)" stroke-width="1px"></line><line x1="39.15625" y1="283.82102272727275" x2="34.15625" y2="283.82102272727275" style="visibility: inherit;" fill="rgb(0, 0, 0)" stroke="rgb(204, 204, 204)" stroke-width="1px"></line><line x1="39.15625" y1="252.76136363636363" x2="34.15625" y2="252.76136363636363" style="visibility: inherit;" fill="rgb(0, 0, 0)" stroke="rgb(204, 204, 204)" stroke-width="1px"></line><line x1="39.15625" y1="221.70170454545456" x2="34.15625" y2="221.70170454545456" style="visibility: inherit;" fill="rgb(0, 0, 0)" stroke="rgb(204, 204, 204)" stroke-width="1px"></line><line x1="39.15625" y1="190.64204545454544" x2="34.15625" y2="190.64204545454544" style="visibility: inherit;" fill="rgb(0, 0, 0)" stroke="rgb(204, 204, 204)" stroke-width="1px"></line><line x1="39.15625" y1="159.58238636363635" x2="34.15625" y2="159.58238636363635" style="visibility: inherit;" fill="rgb(0, 0, 0)" stroke="rgb(204, 204, 204)" stroke-width="1px"></line><line x1="39.15625" y1="128.52272727272725" x2="34.15625" y2="128.52272727272725" style="visibility: inherit;" fill="rgb(0, 0, 0)" stroke="rgb(204, 204, 204)" stroke-width="1px"></line><line x1="39.15625" y1="97.46306818181819" x2="34.15625" y2="97.46306818181819" style="visibility: inherit;" fill="rgb(0, 0, 0)" stroke="rgb(204, 204, 204)" stroke-width="1px"></line><line x1="39.15625" y1="66.40340909090912" x2="34.15625" y2="66.40340909090912" style="visibility: inherit;" fill="rgb(0, 0, 0)" stroke="rgb(204, 204, 204)" stroke-width="1px"></line><line x1="39.15625" y1="35.34375" x2="34.15625" y2="35.34375" style="visibility: inherit;" fill="rgb(0, 0, 0)" stroke="rgb(204, 204, 204)" stroke-width="1px"></line><line x1="39.15625" y1="4.284090909090878" x2="34.15625" y2="4.284090909090878" style="visibility: inherit;" fill="rgb(0, 0, 0)" stroke="rgb(204, 204, 204)" stroke-width="1px"></line></g><g transform="translate(29.15625, 0)"><text x="0" y="377" dx="0em" dy="0.3em" style="text-anchor: end; visibility: hidden; font-family: &quot;Helvetica Neue&quot;, sans-serif; font-size: 12px; font-weight: 200;" fill="rgb(50, 49, 63)" stroke="none" stroke-width="1px">-50</text><text x="0" y="345.9403409090909" dx="0em" dy="0.3em" style="text-anchor: end; visibility: inherit; font-family: &quot;Helvetica Neue&quot;, sans-serif; font-size: 12px; font-weight: 200;" fill="rgb(50, 49, 63)" stroke="none" stroke-width="1px">0</text><text x="0" y="314.8806818181818" dx="0em" dy="0.3em" style="text-anchor: end; visibility: inherit; font-family: &quot;Helvetica Neue&quot;, sans-serif; font-size: 12px; font-weight: 200;" fill="rgb(50, 49, 63)" stroke="none" stroke-width="1px">50</text><text x="0" y="283.82102272727275" dx="0em" dy="0.3em" style="text-anchor: end; visibility: inherit; font-family: &quot;Helvetica Neue&quot;, sans-serif; font-size: 12px; font-weight: 200;" fill="rgb(50, 49, 63)" stroke="none" stroke-width="1px">100</text><text x="0" y="252.76136363636363" dx="0em" dy="0.3em" style="text-anchor: end; visibility: inherit; font-family: &quot;Helvetica Neue&quot;, sans-serif; font-size: 12px; font-weight: 200;" fill="rgb(50, 49, 63)" stroke="none" stroke-width="1px">150</text><text x="0" y="221.70170454545456" dx="0em" dy="0.3em" style="text-anchor: end; visibility: inherit; font-family: &quot;Helvetica Neue&quot;, sans-serif; font-size: 12px; font-weight: 200;" fill="rgb(50, 49, 63)" stroke="none" stroke-width="1px">200</text><text x="0" y="190.64204545454544" dx="0em" dy="0.3em" style="text-anchor: end; visibility: inherit; font-family: &quot;Helvetica Neue&quot;, sans-serif; font-size: 12px; font-weight: 200;" fill="rgb(50, 49, 63)" stroke="none" stroke-width="1px">250</text><text x="0" y="159.58238636363635" dx="0em" dy="0.3em" style="text-anchor: end; visibility: inherit; font-family: &quot;Helvetica Neue&quot;, sans-serif; font-size: 12px; font-weight: 200;" fill="rgb(50, 49, 63)" stroke="none" stroke-width="1px">300</text><text x="0" y="128.52272727272725" dx="0em" dy="0.3em" style="text-anchor: end; visibility: inherit; font-family: &quot;Helvetica Neue&quot;, sans-serif; font-size: 12px; font-weight: 200;" fill="rgb(50, 49, 63)" stroke="none" stroke-width="1px">350</text><text x="0" y="97.46306818181819" dx="0em" dy="0.3em" style="text-anchor: end; visibility: inherit; font-family: &quot;Helvetica Neue&quot;, sans-serif; font-size: 12px; font-weight: 200;" fill="rgb(50, 49, 63)" stroke="none" stroke-width="1px">400</text><text x="0" y="66.40340909090912" dx="0em" dy="0.3em" style="text-anchor: end; visibility: inherit; font-family: &quot;Helvetica Neue&quot;, sans-serif; font-size: 12px; font-weight: 200;" fill="rgb(50, 49, 63)" stroke="none" stroke-width="1px">450</text><text x="0" y="35.34375" dx="0em" dy="0.3em" style="text-anchor: end; visibility: inherit; font-family: &quot;Helvetica Neue&quot;, sans-serif; font-size: 12px; font-weight: 200;" fill="rgb(50, 49, 63)" stroke="none" stroke-width="1px">500</text><text x="0" y="4.284090909090878" dx="0em" dy="0.3em" style="text-anchor: end; visibility: hidden; font-family: &quot;Helvetica Neue&quot;, sans-serif; font-size: 12px; font-weight: 200;" fill="rgb(50, 49, 63)" stroke="none" stroke-width="1px">550</text></g><line x1="39.15625" y1="0" x2="39.15625" y2="377" fill="rgb(0, 0, 0)" stroke="rgb(204, 204, 204)" stroke-width="1px"></line></g></g><g transform="translate(39, 0)" clip-path="url(#clip_0)"><clipPath id="clip_0"><rect width="1473" height="377"></rect></clipPath><g><g><g><line x1="139.6327740700135" y1="0" x2="139.6327740700135" y2="377" fill="rgb(0, 0, 0)" stroke="rgb(60, 60, 60)" stroke-width="1px" opacity="0.25"></line><line x1="352.8040595866045" y1="0" x2="352.8040595866045" y2="377" fill="rgb(0, 0, 0)" stroke="rgb(60, 60, 60)" stroke-width="1px" opacity="0.25"></line><line x1="565.9753451031955" y1="0" x2="565.9753451031955" y2="377" fill="rgb(0, 0, 0)" stroke="rgb(60, 60, 60)" stroke-width="1px" opacity="0.25"></line><line x1="779.1466306197866" y1="0" x2="779.1466306197866" y2="377" fill="rgb(0, 0, 0)" stroke="rgb(60, 60, 60)" stroke-width="1px" opacity="0.25"></line><line x1="992.3179161363776" y1="0" x2="992.3179161363776" y2="377" fill="rgb(0, 0, 0)" stroke="rgb(60, 60, 60)" stroke-width="1px" opacity="0.25"></line><line x1="1205.4892016529686" y1="0" x2="1205.4892016529686" y2="377" fill="rgb(0, 0, 0)" stroke="rgb(60, 60, 60)" stroke-width="1px" opacity="0.25"></line><line x1="1418.6604871695597" y1="0" x2="1418.6604871695597" y2="377" fill="rgb(0, 0, 0)" stroke="rgb(60, 60, 60)" stroke-width="1px" opacity="0.25"></line></g><g><line x1="0" y1="377" x2="1473.84375" y2="377" fill="rgb(0, 0, 0)" stroke="rgb(60, 60, 60)" stroke-width="1px" opacity="0.25"></line><line x1="0" y1="345.9403409090909" x2="1473.84375" y2="345.9403409090909" fill="rgb(0, 0, 0)" stroke="rgb(60, 60, 60)" stroke-width="1px" opacity="0.25"></line><line x1="0" y1="314.8806818181818" x2="1473.84375" y2="314.8806818181818" fill="rgb(0, 0, 0)" stroke="rgb(60, 60, 60)" stroke-width="1px" opacity="0.25"></line><line x1="0" y1="283.82102272727275" x2="1473.84375" y2="283.82102272727275" fill="rgb(0, 0, 0)" stroke="rgb(60, 60, 60)" stroke-width="1px" opacity="0.25"></line><line x1="0" y1="252.76136363636363" x2="1473.84375" y2="252.76136363636363" fill="rgb(0, 0, 0)" stroke="rgb(60, 60, 60)" stroke-width="1px" opacity="0.25"></line><line x1="0" y1="221.70170454545456" x2="1473.84375" y2="221.70170454545456" fill="rgb(0, 0, 0)" stroke="rgb(60, 60, 60)" stroke-width="1px" opacity="0.25"></line><line x1="0" y1="190.64204545454544" x2="1473.84375" y2="190.64204545454544" fill="rgb(0, 0, 0)" stroke="rgb(60, 60, 60)" stroke-width="1px" opacity="0.25"></line><line x1="0" y1="159.58238636363635" x2="1473.84375" y2="159.58238636363635" fill="rgb(0, 0, 0)" stroke="rgb(60, 60, 60)" stroke-width="1px" opacity="0.25"></line><line x1="0" y1="128.52272727272725" x2="1473.84375" y2="128.52272727272725" fill="rgb(0, 0, 0)" stroke="rgb(60, 60, 60)" stroke-width="1px" opacity="0.25"></line><line x1="0" y1="97.46306818181819" x2="1473.84375" y2="97.46306818181819" fill="rgb(0, 0, 0)" stroke="rgb(60, 60, 60)" stroke-width="1px" opacity="0.25"></line><line x1="0" y1="66.40340909090912" x2="1473.84375" y2="66.40340909090912" fill="rgb(0, 0, 0)" stroke="rgb(60, 60, 60)" stroke-width="1px" opacity="0.25"></line><line x1="0" y1="35.34375" x2="1473.84375" y2="35.34375" fill="rgb(0, 0, 0)" stroke="rgb(60, 60, 60)" stroke-width="1px" opacity="0.25"></line><line x1="0" y1="4.284090909090878" x2="1473.84375" y2="4.284090909090878" fill="rgb(0, 0, 0)" stroke="rgb(60, 60, 60)" stroke-width="1px" opacity="0.25"></line></g></g></g><g><g><line x1="0" y1="345.9403409090909" x2="1473.84375" y2="345.9403409090909" fill="rgb(0, 0, 0)" stroke="rgb(153, 153, 153)" stroke-width="1.5px"></line></g></g><g><g><line x1="139.6327740700135" y1="0" x2="139.6327740700135" y2="377" fill="rgb(0, 0, 0)" stroke="rgb(153, 153, 153)" stroke-width="1.5px"></line></g></g><g><g><g><g><g><path stroke="rgb(51, 187, 238)" stroke-width="2px" d="M143.8961997803453,333.5164772727273L148.15962549067714,334.09884588068184L152.42305120100895,333.90736434033937L156.68647691134078,332.30035470031044L160.9499026216726,332.07342120675503L165.2133283320044,332.50513428116994L169.47675404233624,332.848283757362L173.74017975266807,333.4044393740491L178.00360546299987,333.95172445161194L182.2670311733317,334.4265375974599L186.5304568836635,334.877347512112L190.79388259399536,335.2656344051354L195.05730830432717,335.48371110321114L199.320734014659,335.30011857316555L203.5841597249908,335.1166606107003L207.84758543532263,335.09777512952746L212.11101114565443,335.2107069205689L216.37443685598626,335.18181378940545L220.63786256631806,335.2349588367442L224.90128827664992,335.330273010279L229.16471398698175,335.33835450477767L233.42813969731355,335.28726805646596L237.69156540764538,334.881442774038L241.9549911179772,334.59428554729993L246.21841682830905,334.1929785778013L250.48184253864082,331.772089689443L254.74526824897268,328.92674020446L259.0086939593045,325.8019615758059L263.2721196696363,322.80435792065884L267.5355453799681,318.9805627071409L271.7989710903,315.6012689942221L276.06239680063175,312.42448557552206L280.3258225109636,309.55180128608157L284.5892482212954,306.3191679119667L288.85267393162724,303.0135885145694L293.116099641959,299.7332290425219L297.37952535229084,297.08879091124777L301.64295106262267,294.9399603440037L305.9063767729545,292.83061989805424L310.16980248328633,290.5002270493537L314.43322819361816,288.3921651457543L318.69665390395,286.59920574320176L322.96007961428177,284.91585774851063L327.2235053246136,282.93623555129307L331.4869310349454,281.32994166810556L335.75035674527726,279.4688854552927L340.0137824556091,277.9478145493125L344.2772081659409,275.907333300846L348.5406338762727,274.19961225659654L352.8040595866045,272.6065237929806L357.06748529693635,271.0314263446159L361.3309110072682,269.54350440899077L365.59433671759996,268.3112125293076L369.85776242793185,265.85984620564517L374.1211881382637,263.0645662635909L378.3846138485954,260.9710388668324L382.6480395589273,258.1536096315778L386.9114652692591,256.23233544905145L391.17489097959094,255.0166174996498L395.4383166899228,253.9861370411495L399.70174240025455,252.67747656326276L403.9651681105864,250.50278896745147L408.2285938209182,247.8525987646455L412.49201953125004,244.95915052299185L416.7554452415818,241.95984975468534L421.01887095191364,238.93531607368078L425.28229666224547,235.93221129885768L429.54572237257736,232.9769135671453L433.8091480829091,230.08373317578466L438.07257379324096,227.25982313037423L442.3359995035728,224.5081254736974L446.5994252139046,221.82912391716965L450.8628509242364,219.22190300263165L455.1262766345682,216.68477601650042L459.38970234490006,214.2156427809485L463.6531280552319,211.81222707738536L467.91655376556366,209.47218497738547L472.1799794758955,207.193192590019L476.4434051862273,204.97298354440113L480.70683089655915,202.8093638962968L484.97025660689104,200.7002286550083L489.23368231722276,198.6435603251211L493.4971080275546,197.056559022013L497.7605337378865,195.72130680485097L502.0239594482183,194.1748639404767L506.28738515855,192.519037461909L510.5508108688819,190.81431632937927L514.8142365792137,189.09642519968278L519.0776622895455,187.3862453134021L523.3410879998773,185.69579735893967L527.6045137102092,184.03178569339002L531.867939420541,182.3977627896857L536.1313651308728,180.79539757318662L540.3947908412046,179.22525917240762L544.6582165515365,177.68727958653008L548.9216422618683,176.54854530873624L553.1850679722002,175.29006408321314L557.4484936825319,173.971465473382L561.7119193928637,173.15525990758653L565.9753451031955,172.2657875328809L570.2387708135274,170.98667228987568L574.5021965238592,169.01906125328662L578.765622234191,166.65077357101387L583.0290479445229,164.0892911897829L587.2924736548547,161.34479827246903L591.5558993651865,158.480565402302L595.8193250755182,155.5643634057544L600.0827507858502,152.594617888784L604.346176496182,149.9952858110347L608.6096022065138,147.22311626020814L612.8730279168456,144.34227740993347L617.1364536271774,142.12427356917897L621.3998793375092,140.33627399285905L625.663305047841,138.4161658371161L629.9267307581729,136.07637988335097L634.1901564685047,134.13330929278692L638.4535821788365,132.0257359515932L642.7170078891684,130.26672460068556L646.9804335995002,128.6100070365788L651.2438593098319,126.522670431775L655.5072850201637,124.71119460525642L659.7707107304957,122.49622775086917L664.0341364408275,120.05406672656574L668.2975621511592,117.40353625092746L672.5609878614911,114.67518781001581L676.8244135718229,112.41201874804898L681.0878392821547,110.25898700497174L685.3512649924866,108.2068281112139L689.6146907028184,106.8562609541973L693.8781164131502,105.5216372543365L698.141542123482,104.62395325825264L702.4049678338138,103.89650528971833L706.6683935441456,103.15689393255349L710.9318192544774,102.8820898438072L715.1952449648093,102.91598617557139L719.4586706751411,103.09784026824235L723.7220963854729,102.6130884022229L727.9855220958048,102.1458205421938L732.2489478061366,101.85055179644667L736.5123735164684,101.56902675796607L740.7757992268002,100.80376779691721L745.0392249371321,100.27752628650433L749.3026506474638,99.87977963381888L753.5660763577957,99.49204376198634L757.8295020681275,98.97862929036165L762.0929277784594,98.65567257765719L766.3563534887911,98.05935899855962L770.619779199123,97.85065873132237L774.8832049094548,97.01231001152064L779.1466306197866,96.11918964155598L783.4100563301183,95.39199264943L787.6734820404503,94.94076642442474L791.936907750782,94.52590962480201L796.2003334611139,94.63977782291585L800.4637591714458,95.05099100849117L804.7271848817775,94.65168407708512L808.9906105921094,94.8022034734006L813.2540363024411,94.15205769153437L817.5174620127731,92.9270826429302L821.7808877231048,91.50133109890288L826.0443134334366,90.19862411474719L830.3077391437685,89.41699992425379L834.5711648541003,88.94802540995778L838.834590564432,88.66664070138017L843.098016274764,88.49780987623359L847.3614419850957,88.39651138114567L851.6248676954276,88.3357322840929L855.8882934057594,88.2992648258612L860.1517191160912,88.27738435092226L864.4151448264231,88.26425606595882L868.6785705367548,88.25637909498079L872.9419962470865,88.25165291239392L877.2054219574185,88.24881720284185L881.4688476677503,88.2471157771106L885.7322733780821,88.24609492167184L889.995699088414,88.24548240840863L894.2591247987457,88.24511490045063L898.5225505090776,88.24489439567589L902.7859762194093,88.24476209281102L907.0494019297413,88.24468271109208L911.312827640073,88.24463508206077L915.5762533504048,88.24460650464192L919.8396790607368,87.89672269295738L924.1031047710685,87.37242141651126L928.3665304814002,87.05784065064358L932.6299561917322,86.86909219112306L936.893381902064,86.75584311541064L941.1568076123958,87.36127253877987L945.4202333227277,88.44013836859932L949.6836590330594,89.08745786649098L953.9470847433913,89.47584956522593L958.210510453723,89.70888458446694L962.4739361640549,89.84870559601148L966.7373618743867,89.93259820293832L971.0007875847185,89.98293376709438L975.2642132950505,89.66030162475306L979.5276390053822,89.46672233934822L983.7910647157139,89.35057476810539L988.0544904260458,88.75908243604744L992.3179161363776,88.25758635585453L996.5813418467095,87.5094326499995L1000.8447675570413,87.06054042648651L1005.108193267373,86.79120509237873L1009.371618977705,86.62960389191403L1013.6350446880367,86.53264317163524L1017.8984703983685,86.47446673946797L1022.1618961087004,86.43956088016762L1026.4253218190322,86.41861736458736L1030.688747529364,86.00848610229065L1034.9521732396959,85.76240734491267L1039.2155989500277,85.61476009048585L1043.4790246603595,84.80061476497929L1047.7424503706914,83.56918295075673L1052.005876081023,82.51972727131408L1056.269301791355,81.89005386364846L1060.5327275016866,80.83887853317708L1064.7961532120187,79.92987241978307L1069.0595789223505,78.69618943614495L1073.3230046326821,77.34472767827191L1077.5864303430142,76.41457880278608L1081.8498560533458,75.22535508154846L1086.1132817636778,74.45218872988721L1090.3767074740094,73.98828891889048L1094.6401331843413,73.70994903229234L1098.903558894673,73.54294510033355L1103.166984605005,73.44274274115827L1107.4304103153368,73.38262132565313L1111.6938360256686,73.34654847635L1115.9572617360004,72.62668423703843L1120.2206874463322,72.77371440241927L1124.484113156664,72.60848841331881L1128.747538866996,72.70067759000563L1133.0109645773277,73.05913367206199L1137.2743902876596,73.1698511131882L1141.5378159979912,73.19155748867485L1145.8012417083232,73.12257956752904L1150.064667418655,73.56572652982959L1154.328093128987,73.94094531384388L1158.5915188393187,73.47531006938766L1162.8549445496503,72.70890800846274L1167.1183702599824,72.1298025340704L1171.381795970314,71.07169030631428L1175.645221680646,69.78581372838306L1179.9086473909776,68.60181459894613L1184.1720731013095,67.38203974536282L1188.4354988116415,66.1035218000431L1192.6989245219731,64.96369512376032L1196.962350232305,63.7107916231509L1201.2257759426368,62.95904952278522L1205.4892016529686,62.237157362319465L1209.7526273633005,61.37167403803045L1214.0160530736323,60.216282831909155L1218.2794787839641,58.91925015541102L1222.542904494296,57.77824827162459L1226.8063302046278,56.5718509349652L1231.0697559149596,55.833104503239895L1235.3331816252914,54.99974550612097L1239.5966073356233,54.49973010784959L1243.860033045955,54.1997208688868L1248.123458756287,54.01971532550908L1252.3868844666185,53.91171199948252L1256.6503101769506,53.84691000386658L1260.9137358872822,53.80802880649691L1265.1771615976143,53.784700088075226L1269.440587307946,53.770702857022115L1273.7040130182777,53.76230451839035L1277.9674387286097,53.7572655152112L1282.2308644389414,53.75424211330375L1286.4942901492732,53.75242807215926L1290.757715859605,53.75133964747255L1295.0211415699368,53.75068659266054L1299.284567280269,53.750294759773396L1303.5479929906005,53.750059660041074L1307.8114187009323,53.749918600201624L1312.0748444112642,53.749833964298034L1316.338270121596,53.749783182755834L1320.6016958319278,53.7497527138305L1324.8651215422597,53.74973443247535L1329.1285472525915,53.749723463662235L1333.3919729629233,53.749716882374344L1337.6553986732551,53.74971293360164L1341.918824383587,53.749710564338045L1346.1822500939188,53.749709142779864L1350.4456758042506,53.74970828984499L1354.7091015145825,53.74970777808397L1358.9725272249143,53.74970747102742L1363.235952935246,53.749707286793466L1367.499378645578,53.076335890381074L1371.7628043559096,51.9566972938112L1376.0262300662414,51.284914135869144L1380.2896557765735,50.881844241104034L1384.553081486905,50.64000230424489L1388.8165071972371,50.4948971421295L1393.0799329075687,50.40783404486018L1397.3433586179005,50.35559618649859L1401.6067843282324,50.32425347148171L1405.8702100385642,50.305447842471494L1410.133635748896,50.29416446506542L1414.3970614592279,50.28739443862179L1418.6604871695597,50.283332422755564L1422.9239128798915,50.28089521323585L1427.1873385902234,50.27943288752397L1431.4507643005552,50.27855549209693L1435.714190010887,50.2780290548406L1439.9776157212189,50.277713192486885L1444.2410414315507,50.277523675074576L1448.5044671418825,50.27740996462734L1452.7678928522141,50.27734173835887L1457.0313185625462,50.277300802597836L1461.294744272878,50.27727624114118L1465.5581699832096,50.27726150426719L1469.8215956935417,50.27725266214287L1474.0850214038735,50.27724735686826" style="fill: none;" fill="none"></path></g></g></g></g><g opacity="0.2"><g><g><g><path style="fill: none;" stroke="rgb(51, 187, 238)" stroke-width="2px" d="M143.8961997803453,333.5164772727273L148.15962549067714,334.44826704545454L152.42305120100895,333.72354206161066L156.68647691134078,330.4105113636364L160.9499026216726,331.7771368375692L165.2133283320044,333.1023488797925L169.47675404233624,333.33899299870836L173.74017975266807,334.2153196022727L178.00360546299987,334.7588636363636L182.2670311733317,335.13157978242094L186.5304568836635,335.54947357134387L190.79388259399536,335.8459517045454L195.05730830432717,335.81011409206826L199.320734014659,335.025089454976L203.5841597249908,334.8416893149506L207.84758543532263,335.0694602272727L212.11101114565443,335.3800568181818L216.37443685598626,335.1384814286232L220.63786256631806,335.31466831163925L224.90128827664992,335.47323555848817L229.16471398698175,335.35047630331735L233.42813969731355,335.2106400650198L237.69156540764538,334.2727128627084L241.9549911179772,334.16355310884387L246.21841682830905,333.5910209758715L250.48184253864082,328.14076668089086L254.74526824897268,324.65872325745494L259.0086939593045,321.114798430096L263.2721196696363,318.30795519915495L267.5355453799681,313.2448720002174L271.7989710903,310.53232954545456L276.06239680063175,307.65931107954543L280.3258225109636,305.2427751948617L284.5892482212954,301.47021808234126L288.85267393162724,298.05521956053644L293.116099641959,294.81268991903823L297.37952535229084,293.1221337552504L301.64295106262267,291.7167145130851L305.9063767729545,289.6666092408787L310.16980248328633,287.0046377840909L314.43322819361816,285.230072294582L318.69665390395,283.9097666415301L322.96007961428177,282.39083575768905L327.2235053246136,279.96680225632406L331.4869310349454,278.9205008437417L335.75035674527726,276.67730113636367L340.0137824556091,275.66620819048444L344.2772081659409,272.84661142826076L348.5406338762727,271.6380306902799L352.8040595866045,270.216891097589L357.06748529693635,268.66878017208796L361.3309110072682,267.3116215055639L365.59433671759996,266.4627747097882L369.85776242793185,262.18279672015797L374.1211881382637,258.8716463505138L378.3846138485954,257.8307477716966L382.6480395589273,253.92746577869764L386.9114652692591,253.35042417526245L391.17489097959094,253.19304057554766L395.4383166899228,252.44041635339912L399.70174240025455,250.71448584643278L403.9651681105864,247.2407575737346L408.2285938209182,243.8773134604367L412.49201953125004,240.61897816051138L416.7554452415818,237.46089860222557L421.01887095191364,234.39851555217396L425.28229666224547,231.42755413662303L429.54572237257736,228.54396696957676L433.8091480829091,225.74396258874373L438.07257379324096,223.02395806225863L442.3359995035728,220.38057898868215L446.5994252139046,217.81062158237805L450.8628509242364,215.3110716308247L455.1262766345682,212.87908553730358L459.38970234490006,210.51194292762062L463.6531280552319,208.20710352204063L467.91655376556366,205.96212182738563L472.1799794758955,203.7747040089694L476.4434051862273,201.64266997597434L480.70683089655915,199.56393442414023L484.97025660689104,197.53652579307555L489.23368231722276,195.55855783029034L493.4971080275546,194.67605706735088L497.7605337378865,193.71842847910793L502.0239594482183,191.85519964391534L506.28738515855,190.03529774405737L510.5508108688819,188.25723463058472L514.8142365792137,186.51958850513807L519.0776622895455,184.82097548398104L523.3410879998773,183.16012542724607L527.6045137102092,181.53576819506557L531.867939420541,179.94672843412917L536.1313651308728,178.39184974843803L540.3947908412046,176.87005157123912L544.6582165515365,175.38031020771373L548.9216422618683,174.84044389204544L553.1850679722002,173.40234224492855L557.4484936825319,171.99356755863533L561.7119193928637,171.93095155889338L565.9753451031955,170.93157897082241L570.2387708135274,169.06799942536787L574.5021965238592,166.06764469840311L578.765622234191,163.09834204760466L583.0290479445229,160.24706761793655L587.2924736548547,157.22805889649823L591.5558993651865,154.18421609705143L595.8193250755182,151.19006041093303L600.0827507858502,148.1399996133284L604.346176496182,146.09628769441085L608.6096022065138,143.06486193396827L612.8730279168456,140.02101913452148L617.1364536271774,138.7972678080472L621.3998793375092,137.6542746283791L625.663305047841,135.53600360350174L629.9267307581729,132.5667009527033L634.1901564685047,131.2187034069408L638.4535821788365,128.86437593980267L642.7170078891684,127.62820757432416L646.9804335995002,126.12493069041861L651.2438593098319,123.39166552456942L655.5072850201637,121.9939808654785L659.7707107304957,119.17377746928821L664.0341364408275,116.3908251901106L668.2975621511592,113.42774053747002L672.5609878614911,110.58266514864835L676.8244135718229,109.01726515509864L681.0878392821547,107.02943939035583L685.3512649924866,105.12858977057715L689.6146907028184,104.83041021867228L693.8781164131502,103.51970170454541L698.141542123482,103.27742726412686L702.4049678338138,102.80533333691682L706.6683935441456,102.04747689680619L710.9318192544774,102.46988371068778L715.1952449648093,102.96683067321777L719.4586706751411,103.37062140724873L723.7220963854729,101.88596060319378L727.9855220958048,101.4449187521501L732.2489478061366,101.40764867782593L736.5123735164684,101.14673920024524L740.7757992268002,99.65587935534393L745.0392249371321,99.48816402088511L749.3026506474638,99.28315965479072L753.5660763577957,98.91043995423746L757.8295020681275,98.2085075829246L762.0929277784594,98.17123750860037L766.3563534887911,97.16488862991332L770.619779199123,97.53760833046653L774.8832049094548,95.75478693181816L779.1466306197866,94.77950908660887L783.4100563301183,94.30119716124102L787.6734820404503,94.26392708691685L791.936907750782,93.90362442536787L796.2003334611139,94.81058012008663L800.4637591714458,95.66781078685409L804.7271848817775,94.052723679976L808.9906105921094,95.02798256787383L813.2540363024411,93.176839018735L817.5174620127731,91.08962007002395L821.7808877231048,89.36270378286184L826.0443134334366,88.24456363851374L830.3077391437685,88.24456363851374L834.5711648541003,88.24456363851374L838.834590564432,88.24456363851374L843.098016274764,88.24456363851374L847.3614419850957,88.24456363851374L851.6248676954276,88.24456363851374L855.8882934057594,88.24456363851374L860.1517191160912,88.24456363851374L864.4151448264231,88.24456363851374L868.6785705367548,88.24456363851374L872.9419962470865,88.24456363851374L877.2054219574185,88.24456363851374L881.4688476677503,88.24456363851374L885.7322733780821,88.24456363851374L889.995699088414,88.24456363851374L894.2591247987457,88.24456363851374L898.5225505090776,88.24456363851374L902.7859762194093,88.24456363851374L907.0494019297413,88.24456363851374L911.312827640073,88.24456363851374L915.5762533504048,88.24456363851374L919.8396790607368,87.37489697543054L924.1031047710685,86.5859695018421L928.3665304814002,86.5859695018421L932.6299561917322,86.5859695018421L936.893381902064,86.5859695018421L941.1568076123958,88.26941667383369L945.4202333227277,90.05843711332841L949.6836590330594,90.05843711332841L953.9470847433913,90.05843711332841L958.210510453723,90.05843711332841L962.4739361640549,90.05843711332841L966.7373618743867,90.05843711332841L971.0007875847185,90.05843711332841L975.2642132950505,89.176353411241L979.5276390053822,89.176353411241L983.7910647157139,89.176353411241L988.0544904260458,87.87184393796053L992.3179161363776,87.5053422355652L996.5813418467095,86.38720209121703L1000.8447675570413,86.38720209121703L1005.108193267373,86.38720209121703L1009.371618977705,86.38720209121703L1013.6350446880367,86.38720209121703L1017.8984703983685,86.38720209121703L1022.1618961087004,86.38720209121703L1026.4253218190322,86.38720209121703L1030.688747529364,85.39328920884566L1034.9521732396959,85.39328920884566L1039.2155989500277,85.39328920884566L1043.4790246603595,83.57939677671953L1047.7424503706914,81.72203522942283L1052.005876081023,80.94554375215006L1056.269301791355,80.94554375215006L1060.5327275016866,79.26211553747004L1064.7961532120187,78.56636324969202L1069.0595789223505,76.84566496068777L1073.3230046326821,75.31753504146229L1077.5864303430142,75.01935548955743L1081.8498560533458,73.44151949969205L1086.1132817636778,73.29243920239537L1090.3767074740094,73.29243920239537L1094.6401331843413,73.29243920239537L1098.903558894673,73.29243920239537L1103.166984605005,73.29243920239537L1107.4304103153368,73.29243920239537L1111.6938360256686,73.29243920239537L1115.9572617360004,71.54688787807117L1120.2206874463322,72.9942596504905L1124.484113156664,72.36064942966806L1128.747538866996,72.8389613550359L1133.0109645773277,73.59681779514659L1137.2743902876596,73.33592727487735L1141.5378159979912,73.22411705190484L1145.8012417083232,73.0191126858104L1150.064667418655,74.2304469732805L1154.328093128987,74.50377348986541L1158.5915188393187,72.7768572027033L1162.8549445496503,71.5593049170754L1167.1183702599824,71.26114432248204L1171.381795970314,69.48452196468003L1175.645221680646,67.8569988614862L1179.9086473909776,66.82581590479066L1184.1720731013095,65.55237746498801L1188.4354988116415,64.18574488206343L1192.6989245219731,63.253955109336175L1196.962350232305,61.83143637223674L1201.2257759426368,61.83143637223674L1205.4892016529686,61.15431912162086L1209.7526273633005,60.07344905159687L1214.0160530736323,58.48319602272727L1218.2794787839641,56.97370114066382L1222.542904494296,56.06674544594506L1226.8063302046278,54.762254929975995L1231.0697559149596,54.724984855651826L1235.3331816252914,53.749707010442535L1239.5966073356233,53.749707010442535L1243.860033045955,53.749707010442535L1248.123458756287,53.749707010442535L1252.3868844666185,53.749707010442535L1256.6503101769506,53.749707010442535L1260.9137358872822,53.749707010442535L1265.1771615976143,53.749707010442535L1269.440587307946,53.749707010442535L1273.7040130182777,53.749707010442535L1277.9674387286097,53.749707010442535L1282.2308644389414,53.749707010442535L1286.4942901492732,53.749707010442535L1290.757715859605,53.749707010442535L1295.0211415699368,53.749707010442535L1299.284567280269,53.749707010442535L1303.5479929906005,53.749707010442535L1307.8114187009323,53.749707010442535L1312.0748444112642,53.749707010442535L1316.338270121596,53.749707010442535L1320.6016958319278,53.749707010442535L1324.8651215422597,53.749707010442535L1329.1285472525915,53.749707010442535L1333.3919729629233,53.749707010442535L1337.6553986732551,53.749707010442535L1341.918824383587,53.749707010442535L1346.1822500939188,53.749707010442535L1350.4456758042506,53.749707010442535L1354.7091015145825,53.749707010442535L1358.9725272249143,53.749707010442535L1363.235952935246,53.749707010442535L1367.499378645578,52.066278795762514L1371.7628043559096,50.27723939895628L1376.0262300662414,50.27723939895628L1380.2896557765735,50.27723939895628L1384.553081486905,50.27723939895628L1388.8165071972371,50.27723939895628L1393.0799329075687,50.27723939895628L1397.3433586179005,50.27723939895628L1401.6067843282324,50.27723939895628L1405.8702100385642,50.27723939895628L1410.133635748896,50.27723939895628L1414.3970614592279,50.27723939895628L1418.6604871695597,50.27723939895628L1422.9239128798915,50.27723939895628L1427.1873385902234,50.27723939895628L1431.4507643005552,50.27723939895628L1435.714190010887,50.27723939895628L1439.9776157212189,50.27723939895628L1444.2410414315507,50.27723939895628L1448.5044671418825,50.27723939895628L1452.7678928522141,50.27723939895628L1457.0313185625462,50.27723939895628L1461.294744272878,50.27723939895628L1465.5581699832096,50.27723939895628L1469.8215956935417,50.27723939895628L1474.0850214038735,50.27723939895628" fill="none"></path></g></g></g></g></g></g><g transform="translate(39, 377)" clip-path="url(#clip_1)"><clipPath id="clip_1"><rect width="1473" height="23"></rect></clipPath><g><g><line x1="139.6327740700135" y1="0" x2="139.6327740700135" y2="5" style="visibility: inherit;" fill="rgb(0, 0, 0)" stroke="rgb(204, 204, 204)" stroke-width="1px"></line><line x1="352.8040595866045" y1="0" x2="352.8040595866045" y2="5" style="visibility: inherit;" fill="rgb(0, 0, 0)" stroke="rgb(204, 204, 204)" stroke-width="1px"></line><line x1="565.9753451031955" y1="0" x2="565.9753451031955" y2="5" style="visibility: inherit;" fill="rgb(0, 0, 0)" stroke="rgb(204, 204, 204)" stroke-width="1px"></line><line x1="779.1466306197866" y1="0" x2="779.1466306197866" y2="5" style="visibility: inherit;" fill="rgb(0, 0, 0)" stroke="rgb(204, 204, 204)" stroke-width="1px"></line><line x1="992.3179161363776" y1="0" x2="992.3179161363776" y2="5" style="visibility: inherit;" fill="rgb(0, 0, 0)" stroke="rgb(204, 204, 204)" stroke-width="1px"></line><line x1="1205.4892016529686" y1="0" x2="1205.4892016529686" y2="5" style="visibility: inherit;" fill="rgb(0, 0, 0)" stroke="rgb(204, 204, 204)" stroke-width="1px"></line><line x1="1418.6604871695597" y1="0" x2="1418.6604871695597" y2="5" style="visibility: inherit;" fill="rgb(0, 0, 0)" stroke="rgb(204, 204, 204)" stroke-width="1px"></line></g><g transform="translate(0, 8)"><text x="139.6327740700135" y="0" dx="0em" dy="0.95em" style="text-anchor: middle; visibility: inherit; font-family: &quot;Helvetica Neue&quot;, sans-serif; font-size: 12px; font-weight: 200;" fill="rgb(50, 49, 63)" stroke="none" stroke-width="1px">0</text><text x="352.8040595866045" y="0" dx="0em" dy="0.95em" style="text-anchor: middle; visibility: inherit; font-family: &quot;Helvetica Neue&quot;, sans-serif; font-size: 12px; font-weight: 200;" fill="rgb(50, 49, 63)" stroke="none" stroke-width="1px">50</text><text x="565.9753451031955" y="0" dx="0em" dy="0.95em" style="text-anchor: middle; visibility: inherit; font-family: &quot;Helvetica Neue&quot;, sans-serif; font-size: 12px; font-weight: 200;" fill="rgb(50, 49, 63)" stroke="none" stroke-width="1px">100</text><text x="779.1466306197866" y="0" dx="0em" dy="0.95em" style="text-anchor: middle; visibility: inherit; font-family: &quot;Helvetica Neue&quot;, sans-serif; font-size: 12px; font-weight: 200;" fill="rgb(50, 49, 63)" stroke="none" stroke-width="1px">150</text><text x="992.3179161363776" y="0" dx="0em" dy="0.95em" style="text-anchor: middle; visibility: inherit; font-family: &quot;Helvetica Neue&quot;, sans-serif; font-size: 12px; font-weight: 200;" fill="rgb(50, 49, 63)" stroke="none" stroke-width="1px">200</text><text x="1205.4892016529686" y="0" dx="0em" dy="0.95em" style="text-anchor: middle; visibility: inherit; font-family: &quot;Helvetica Neue&quot;, sans-serif; font-size: 12px; font-weight: 200;" fill="rgb(50, 49, 63)" stroke="none" stroke-width="1px">250</text><text x="1418.6604871695597" y="0" dx="0em" dy="0.95em" style="text-anchor: middle; visibility: inherit; font-family: &quot;Helvetica Neue&quot;, sans-serif; font-size: 12px; font-weight: 200;" fill="rgb(50, 49, 63)" stroke="none" stroke-width="1px">300</text></g><line x1="0" y1="0" x2="1473.84375" y2="0" fill="rgb(0, 0, 0)" stroke="rgb(204, 204, 204)" stroke-width="1px"></line></g></g></g></g></svg>