<svg viewBox="0 0 1513 400" xmlns="http://www.w3.org/2000/svg"><g><g><g><g><g><line x1="39.15625" y1="377" x2="34.15625" y2="377" style="visibility: inherit;" fill="rgb(0, 0, 0)" stroke="rgb(204, 204, 204)" stroke-width="1px"></line><line x1="39.15625" y1="345.9403409090909" x2="34.15625" y2="345.9403409090909" style="visibility: inherit;" fill="rgb(0, 0, 0)" stroke="rgb(204, 204, 204)" stroke-width="1px"></line><line x1="39.15625" y1="314.8806818181818" x2="34.15625" y2="314.8806818181818" style="visibility: inherit;" fill="rgb(0, 0, 0)" stroke="rgb(204, 204, 204)" stroke-width="1px"></line><line x1="39.15625" y1="283.82102272727275" x2="34.15625" y2="283.82102272727275" style="visibility: inherit;" fill="rgb(0, 0, 0)" stroke="rgb(204, 204, 204)" stroke-width="1px"></line><line x1="39.15625" y1="252.76136363636363" x2="34.15625" y2="252.76136363636363" style="visibility: inherit;" fill="rgb(0, 0, 0)" stroke="rgb(204, 204, 204)" stroke-width="1px"></line><line x1="39.15625" y1="221.70170454545456" x2="34.15625" y2="221.70170454545456" style="visibility: inherit;" fill="rgb(0, 0, 0)" stroke="rgb(204, 204, 204)" stroke-width="1px"></line><line x1="39.15625" y1="190.64204545454544" x2="34.15625" y2="190.64204545454544" style="visibility: inherit;" fill="rgb(0, 0, 0)" stroke="rgb(204, 204, 204)" stroke-width="1px"></line><line x1="39.15625" y1="159.58238636363635" x2="34.15625" y2="159.58238636363635" style="visibility: inherit;" fill="rgb(0, 0, 0)" stroke="rgb(204, 204, 204)" stroke-width="1px"></line><line x1="39.15625" y1="128.52272727272725" x2="34.15625" y2="128.52272727272725" style="visibility: inherit;" fill="rgb(0, 0, 0)" stroke="rgb(204, 204, 204)" stroke-width="1px"></line><line x1="39.15625" y1="97.46306818181819" x2="34.15625" y2="97.46306818181819" style="visibility: inherit;" fill="rgb(0, 0, 0)" stroke="rgb(204, 204, 204)" stroke-width="1px"></line><line x1="39.15625" y1="66.40340909090912" x2="34.15625" y2="66.40340909090912" style="visibility: inherit;" fill="rgb(0, 0, 0)" stroke="rgb(204, 204, 204)" stroke-width="1px"></line><line x1="39.15625" y1="35.34375" x2="34.15625" y2="35.34375" style="visibility: inherit;" fill="rgb(0, 0, 0)" stroke="rgb(204, 204, 204)" stroke-width="1px"></line><line x1="39.15625" y1="4.284090909090878" x2="34.15625" y2="4.284090909090878" style="visibility: inherit;" fill="rgb(0, 0, 0)" stroke="rgb(204, 204, 204)" stroke-width="1px"></line></g><g transform="translate(29.15625, 0)"><text x="0" y="377" dx="0em" dy="0.3em" style="text-anchor: end; visibility: hidden; font-family: &quot;Helvetica Neue&quot;, sans-serif; font-size: 12px; font-weight: 200;" fill="rgb(50, 49, 63)" stroke="none" stroke-width="1px">-50</text><text x="0" y="345.9403409090909" dx="0em" dy="0.3em" style="text-anchor: end; visibility: inherit; font-family: &quot;Helvetica Neue&quot;, sans-serif; font-size: 12px; font-weight: 200;" fill="rgb(50, 49, 63)" stroke="none" stroke-width="1px">0</text><text x="0" y="314.8806818181818" dx="0em" dy="0.3em" style="text-anchor: end; visibility: inherit; font-family: &quot;Helvetica Neue&quot;, sans-serif; font-size: 12px; font-weight: 200;" fill="rgb(50, 49, 63)" stroke="none" stroke-width="1px">50</text><text x="0" y="283.82102272727275" dx="0em" dy="0.3em" style="text-anchor: end; visibility: inherit; font-family: &quot;Helvetica Neue&quot;, sans-serif; font-size: 12px; font-weight: 200;" fill="rgb(50, 49, 63)" stroke="none" stroke-width="1px">100</text><text x="0" y="252.76136363636363" dx="0em" dy="0.3em" style="text-anchor: end; visibility: inherit; font-family: &quot;Helvetica Neue&quot;, sans-serif; font-size: 12px; font-weight: 200;" fill="rgb(50, 49, 63)" stroke="none" stroke-width="1px">150</text><text x="0" y="221.70170454545456" dx="0em" dy="0.3em" style="text-anchor: end; visibility: inherit; font-family: &quot;Helvetica Neue&quot;, sans-serif; font-size: 12px; font-weight: 200;" fill="rgb(50, 49, 63)" stroke="none" stroke-width="1px">200</text><text x="0" y="190.64204545454544" dx="0em" dy="0.3em" style="text-anchor: end; visibility: inherit; font-family: &quot;Helvetica Neue&quot;, sans-serif; font-size: 12px; font-weight: 200;" fill="rgb(50, 49, 63)" stroke="none" stroke-width="1px">250</text><text x="0" y="159.58238636363635" dx="0em" dy="0.3em" style="text-anchor: end; visibility: inherit; font-family: &quot;Helvetica Neue&quot;, sans-serif; font-size: 12px; font-weight: 200;" fill="rgb(50, 49, 63)" stroke="none" stroke-width="1px">300</text><text x="0" y="128.52272727272725" dx="0em" dy="0.3em" style="text-anchor: end; visibility: inherit; font-family: &quot;Helvetica Neue&quot;, sans-serif; font-size: 12px; font-weight: 200;" fill="rgb(50, 49, 63)" stroke="none" stroke-width="1px">350</text><text x="0" y="97.46306818181819" dx="0em" dy="0.3em" style="text-anchor: end; visibility: inherit; font-family: &quot;Helvetica Neue&quot;, sans-serif; font-size: 12px; font-weight: 200;" fill="rgb(50, 49, 63)" stroke="none" stroke-width="1px">400</text><text x="0" y="66.40340909090912" dx="0em" dy="0.3em" style="text-anchor: end; visibility: inherit; font-family: &quot;Helvetica Neue&quot;, sans-serif; font-size: 12px; font-weight: 200;" fill="rgb(50, 49, 63)" stroke="none" stroke-width="1px">450</text><text x="0" y="35.34375" dx="0em" dy="0.3em" style="text-anchor: end; visibility: inherit; font-family: &quot;Helvetica Neue&quot;, sans-serif; font-size: 12px; font-weight: 200;" fill="rgb(50, 49, 63)" stroke="none" stroke-width="1px">500</text><text x="0" y="4.284090909090878" dx="0em" dy="0.3em" style="text-anchor: end; visibility: hidden; font-family: &quot;Helvetica Neue&quot;, sans-serif; font-size: 12px; font-weight: 200;" fill="rgb(50, 49, 63)" stroke="none" stroke-width="1px">550</text></g><line x1="39.15625" y1="0" x2="39.15625" y2="377" fill="rgb(0, 0, 0)" stroke="rgb(204, 204, 204)" stroke-width="1px"></line></g></g><g transform="translate(39, 0)" clip-path="url(#clip_0)"><clipPath id="clip_0"><rect width="1473" height="377"></rect></clipPath><g><g><g><line x1="127.99722522553942" y1="0" x2="127.99722522553942" y2="377" fill="rgb(0, 0, 0)" stroke="rgb(60, 60, 60)" stroke-width="1px" opacity="0.25"></line><line x1="343.49478469122016" y1="0" x2="343.49478469122016" y2="377" fill="rgb(0, 0, 0)" stroke="rgb(60, 60, 60)" stroke-width="1px" opacity="0.25"></line><line x1="558.992344156901" y1="0" x2="558.992344156901" y2="377" fill="rgb(0, 0, 0)" stroke="rgb(60, 60, 60)" stroke-width="1px" opacity="0.25"></line><line x1="774.4899036225817" y1="0" x2="774.4899036225817" y2="377" fill="rgb(0, 0, 0)" stroke="rgb(60, 60, 60)" stroke-width="1px" opacity="0.25"></line><line x1="989.9874630882625" y1="0" x2="989.9874630882625" y2="377" fill="rgb(0, 0, 0)" stroke="rgb(60, 60, 60)" stroke-width="1px" opacity="0.25"></line><line x1="1205.4850225539435" y1="0" x2="1205.4850225539435" y2="377" fill="rgb(0, 0, 0)" stroke="rgb(60, 60, 60)" stroke-width="1px" opacity="0.25"></line><line x1="1420.9825820196243" y1="0" x2="1420.9825820196243" y2="377" fill="rgb(0, 0, 0)" stroke="rgb(60, 60, 60)" stroke-width="1px" opacity="0.25"></line></g><g><line x1="0" y1="377" x2="1473.84375" y2="377" fill="rgb(0, 0, 0)" stroke="rgb(60, 60, 60)" stroke-width="1px" opacity="0.25"></line><line x1="0" y1="345.9403409090909" x2="1473.84375" y2="345.9403409090909" fill="rgb(0, 0, 0)" stroke="rgb(60, 60, 60)" stroke-width="1px" opacity="0.25"></line><line x1="0" y1="314.8806818181818" x2="1473.84375" y2="314.8806818181818" fill="rgb(0, 0, 0)" stroke="rgb(60, 60, 60)" stroke-width="1px" opacity="0.25"></line><line x1="0" y1="283.82102272727275" x2="1473.84375" y2="283.82102272727275" fill="rgb(0, 0, 0)" stroke="rgb(60, 60, 60)" stroke-width="1px" opacity="0.25"></line><line x1="0" y1="252.76136363636363" x2="1473.84375" y2="252.76136363636363" fill="rgb(0, 0, 0)" stroke="rgb(60, 60, 60)" stroke-width="1px" opacity="0.25"></line><line x1="0" y1="221.70170454545456" x2="1473.84375" y2="221.70170454545456" fill="rgb(0, 0, 0)" stroke="rgb(60, 60, 60)" stroke-width="1px" opacity="0.25"></line><line x1="0" y1="190.64204545454544" x2="1473.84375" y2="190.64204545454544" fill="rgb(0, 0, 0)" stroke="rgb(60, 60, 60)" stroke-width="1px" opacity="0.25"></line><line x1="0" y1="159.58238636363635" x2="1473.84375" y2="159.58238636363635" fill="rgb(0, 0, 0)" stroke="rgb(60, 60, 60)" stroke-width="1px" opacity="0.25"></line><line x1="0" y1="128.52272727272725" x2="1473.84375" y2="128.52272727272725" fill="rgb(0, 0, 0)" stroke="rgb(60, 60, 60)" stroke-width="1px" opacity="0.25"></line><line x1="0" y1="97.46306818181819" x2="1473.84375" y2="97.46306818181819" fill="rgb(0, 0, 0)" stroke="rgb(60, 60, 60)" stroke-width="1px" opacity="0.25"></line><line x1="0" y1="66.40340909090912" x2="1473.84375" y2="66.40340909090912" fill="rgb(0, 0, 0)" stroke="rgb(60, 60, 60)" stroke-width="1px" opacity="0.25"></line><line x1="0" y1="35.34375" x2="1473.84375" y2="35.34375" fill="rgb(0, 0, 0)" stroke="rgb(60, 60, 60)" stroke-width="1px" opacity="0.25"></line><line x1="0" y1="4.284090909090878" x2="1473.84375" y2="4.284090909090878" fill="rgb(0, 0, 0)" stroke="rgb(60, 60, 60)" stroke-width="1px" opacity="0.25"></line></g></g></g><g><g><line x1="0" y1="345.9403409090909" x2="1473.84375" y2="345.9403409090909" fill="rgb(0, 0, 0)" stroke="rgb(153, 153, 153)" stroke-width="1.5px"></line></g></g><g><g><line x1="127.99722522553942" y1="0" x2="127.99722522553942" y2="377" fill="rgb(0, 0, 0)" stroke="rgb(153, 153, 153)" stroke-width="1.5px"></line></g></g><g><g><g><g><g><path style="fill: none;" stroke="rgb(51, 187, 238)" stroke-width="2px" d="M132.30717641485305,333.5164772727273L136.61712760416665,334.6812144886364L140.9270787934803,333.45309021335805L145.2370299827939,327.4872493315508L149.5469811721075,331.71885370008204L153.85693236142112,335.079468710331L158.16688355073472,334.9475333346103L162.47683474004836,337.1452745224873L166.78678592936197,337.93804032993535L171.09673711867558,338.15856672766813L175.4066883079892,338.788790104823L179.71663949730282,338.9164382888424L184.02659068661643,337.5000357806018L188.33654187593004,332.4239527292181L192.64649306524367,332.36397980279776L196.95644425455728,334.8134880057737L201.26639544387092,337.02830860769575L205.5763466331845,334.62942335211665L209.8862978224981,336.17215711016325L214.19624901181174,337.0977371976815L218.50620020112535,335.4167190785611L222.816151390439,334.15965126503227L227.12610257975257,325.95104411498596L231.4360537690662,328.2317963669746L235.7460049583798,324.8791591976316L240.05595614769342,271.68117749981513L244.36590733700706,256.6589183974788L248.67585852632064,244.16688882174958L252.98580971563428,242.38665536438384L257.2957609049479,211.99819104598794L261.60571209426155,218.86132462885774L265.9156632835751,218.75509022340526L270.22561447288876,222.41850885443316L274.5355656622024,204.24142297368311L278.845516851516,195.32298999453207L283.15546804082953,189.72345302987233L287.4654192301432,206.73886737777133L291.7753704194568,219.92984320291617L296.0853216087704,216.6629513690168L300.395272798084,203.27286171260175L304.70522398739763,207.66267157653647L309.01517517671124,216.5084893138151L313.32512636602485,217.34338904307558L317.6350775553385,200.69939705932552L321.9450287446521,213.57291096420622L326.2549799339657,198.4371102139434L330.56493112327934,210.72467521973493L334.87488231259294,182.56496422211777L339.18483350190655,194.98945580616532L343.49478469122016,197.22612802917178L347.8047358805338,194.84097227203702L352.1146870698474,196.1431288177714L356.42463825916104,206.61503638159022L360.73458944847465,138.1065218288824L365.04454063778826,114.89177673367851L369.35449182710187,149.16752058567454L373.6644430164155,103.63801235139442L377.9743942057291,150.36653468357025L382.28434539504275,187.84578444650882L386.59429658435636,195.9216524860875L390.90424777366997,176.41640058256104L395.2141989629835,119.98734034953566L399.52415015229724,86.12990420972102L403.8341013416108,65.81544252583251L408.1440525309244,53.62676551549947L412.454003720238,46.31355930929965L416.7639549095516,41.925635585579755L421.0739060988653,39.29288135134789L425.3838572881789,37.713228810808744L429.6938084774925,36.76543728648522L434.0037596668061,36.19676237189111L438.31371085611977,35.85555742313471L442.6236620454334,35.650834453880805L446.93361323474693,35.52800067232852L451.24356442406054,35.4543004033971L455.55351561337415,35.410080242038305L459.8634668026878,35.38354814522296L464.1734179920014,35.36762888713372L468.483369181315,35.35807733228029L472.79332037062863,35.35234639936823L477.1032715599423,35.34890783962089L481.4132227492559,35.34684470377255L485.7231739385695,70.13242500408171L490.03312512788307,87.77356863881266L494.3430763171967,66.80164118328759L498.6530275065104,54.218484709972586L502.96297869582395,46.66859082598353L507.27292988513756,42.13865449559012L511.58288107445117,39.42069269735407L515.8928322637648,37.78991561841241L520.2027834530785,36.811449371047445L524.512734642392,36.224369622628444L528.8226858317056,35.87212177357708L533.1326370210193,35.66077306414627L537.4425882103329,35.53396383848781L541.7525393996465,70.7416510303654L546.0624905889601,56.5824906182192L550.3724417782737,48.08699437093156L554.6823929675874,95.16992389528622L558.992344156901,85.89961342808078L563.3022953462146,110.40317714775756L567.6122465355281,80.37940628865454L571.9221977248418,62.3651437731927L576.2321489141555,51.556586263915676L580.542100103469,45.07145175834944L584.8520512927827,41.18037105500963L589.1620024820962,38.84572263300578L593.4719536714099,37.44493357980349L597.7819048607236,76.36082378424572L602.0918560500371,59.95399427054741L606.4018072393508,50.10989656232846L610.7117584286643,116.75880157376076L615.021709617978,158.487485489711L619.3316608072915,140.28965038473567L623.6416119966052,98.3112902308414L627.9515631859188,140.46161504759576L632.2615143752324,126.24392357401197L636.5714655645461,158.7120586898617L640.8814167538596,170.49014430482612L645.1913679431733,128.35849567380478L649.5013191324869,154.26582467701013L653.8112703218005,112.66044935166065L658.1212215111142,81.73376961099638L662.4311727004277,63.17776176659777L666.7411238897413,52.04415705995871L671.0510750790551,45.36399423597527L675.3610262683686,41.35589654158508L679.6709774576822,38.951037924951095L683.9809286469958,107.33023639133427L688.2908798363094,78.53564183480051L692.600831025623,129.0931805554258L696.9107822149367,146.00993106052823L701.2207334042503,148.45718590904417L705.5306845935638,176.76108427269924L709.8406357828776,198.7129687454377L714.1505869721911,207.90846306544444L718.4605381615047,158.26380511199392L722.7704893508184,173.2029194308327L727.0804405401319,187.13593347668146L731.3903917294456,175.1206055405543L735.7003429187592,131.13677241524167L740.0102941080729,163.884063449145L744.3202452973865,177.56898352403243L748.6301964867001,161.92611738714675L752.9401476760136,162.23101134137897L757.2500988653273,166.1411068048274L761.560050054641,151.0937549919873L765.8700012439544,161.69504844973787L770.1799524332681,111.15452906984274L774.4899036225817,107.91424016917836L778.7998548118953,122.12108955605248L783.109806001209,151.0203355518133L787.4197571905225,165.12967860381522L791.7297083798362,149.49298898047098L796.0396595691498,156.0135206610099L800.3496107584634,109.23647603296956L804.6595619477771,118.69031743796353L808.9695131370906,85.3516904627781L813.2794643264043,65.34851427766688L817.589415515718,53.34660856660008L821.8993667050315,46.14546513996004L826.2093178943452,41.82477908397607L830.5192690836587,39.23236745038565L834.8292202729724,37.67692047023138L839.1391714622861,36.74365228213884L843.4491226515996,36.18369136928328L847.7590738409133,35.84771482156998L852.0690250302267,35.64612889294199L856.3789762195404,35.525177335765136L860.6889274088542,35.45260640145909L864.9988785981676,35.40906384087549L869.3088297874813,35.38293830452528L873.6187809767948,35.36726298271515L877.9287321661085,35.35785778962912L882.2386833554222,35.35221467377744L886.5486345447357,35.348828804266475L890.8585857340494,35.34679728255986L895.168536923363,35.34557836953593L899.4784881126766,35.34484702172159L903.7884393019903,35.34440821303298L908.0983904913038,35.3441449278198L912.4083416806175,35.343986956691936L916.7182928699311,35.34389217401514L921.0282440592447,35.34383530440908L925.3381952485583,35.34380118264551L929.6481464378719,35.34378070958729L933.9580976271856,35.34376842575239L938.2680488164992,102.68110196454234L942.5780000058127,147.3076157241799L946.8879511951264,102.52206943450796L951.1979023844399,75.6507416607048L955.5078535737536,59.52794499642289L959.8178047630673,49.8542669978537L964.1277559523808,44.05006019871229L968.4377071416944,40.56753611922733L972.7476583310081,38.478021671536396L977.0576095203216,37.22431300292186L981.3675607096353,36.472087801753105L985.6775118989489,36.020752681051874L989.9874630882625,35.74995160863108L994.2974142775762,35.58747096517868L998.6073654668897,35.48998257910722L1002.9173166562034,35.431489547464366L1007.227267845517,35.396393728478586L1011.5372190348306,35.3753362370872L1015.8471702241443,35.36270174225234L1020.1571214134578,35.35512104535144L1024.4670726027714,35.35057262721085L1028.777023792085,35.347843576326454L1033.0869749813987,35.34620614579592L1037.3969261707123,35.345223687477585L1041.7068773600258,35.344634212486596L1046.0168285493396,35.34428052749189L1050.3267797386532,35.34406831649517L1054.6367309279667,35.34394098989708L1058.9466821172805,35.343864593938235L1063.256633306594,35.34381875636291L1067.5665844959076,35.343791253817756L1071.8765356852214,35.34377475229064L1076.186486874535,35.34376485137443L1080.4964380638485,35.34375891082465L1084.806389253162,35.343755346494845L1089.1163404424758,35.343753207896896L1093.4262916317894,35.343751924738115L1097.736242821103,35.34375115484289L1102.0461940104165,35.3437506929057L1106.3561451997302,35.34375041574344L1110.666096389044,35.34375024944609L1114.9760475783573,35.3437501496677L1119.2859987676711,93.23895463525514L1123.595949956985,112.57048641751669L1127.9059011462982,155.22906457778276L1132.215852335612,184.30289329212417L1136.5258035249255,187.83246324800177L1140.835754714239,200.88320522152836L1145.1457059035529,201.01085495109882L1149.4556570928664,202.57830842520474L1153.76560828218,210.7246214187592L1158.0755594714938,140.57227285125552L1162.3855106608073,98.48086371075328L1166.6954618501209,73.22601822645197L1171.0054130394344,58.073110935871114L1175.3153642287482,48.98136656152269L1179.6253154180617,43.52631993691364L1183.9352666073753,40.25329196214818L1188.245217796689,38.28947517728892L1192.5551689860026,37.111185106373284L1196.8651201753162,36.40421106382399L1201.17507136463,35.98002663829442L1205.4850225539435,35.72551598297662L1209.794973743257,35.57280958978595L1214.1049249325706,35.481185753871614L1218.4148761218844,35.426211452322946L1222.724827311198,35.39322687139378L1227.0347785005115,35.37343612283627L1231.344729689825,35.36156167370177L1235.6546808791388,35.35443700422104L1239.9646320684524,35.35016220253266L1244.274583257766,35.34759732151957L1248.5845344470795,35.3460583929118L1252.8944856363933,35.34513503574709L1257.2044368257068,35.34458102144828L1261.5143880150204,35.34424861286891L1265.8243392043341,35.34404916772144L1270.1342903936477,35.34392950063284L1274.4442415829612,35.343857700379715L1278.754192772275,35.34381462022782L1283.0641439615886,35.34378877213669L1287.3740951509021,35.343773263282L1291.6840463402157,35.34376395796926L1295.9939975295295,35.343758374781544L1300.303948718843,35.34375502486887L1304.6138999081566,35.34375301492139L1308.9238510974703,35.34375180895279L1313.2338022867837,35.34375108537165L1317.5437534760974,35.34375065122305L1321.8537046654112,35.34375039073382L1326.1636558547245,35.34375023444028L1330.4736070440383,35.343750140664156L1334.783558233352,35.34375008439855L1339.0935094226654,35.34375005063913L1343.4034606119792,35.34375003038349L1347.7134118012928,35.34375001823008L1352.0233629906063,35.343750010938095L1356.33331417992,35.34375000656286L1360.6432653692336,35.343750003937714L1364.9532165585472,35.34375000236264L1369.2631677478607,35.34375000141756L1373.5731189371745,35.34375000085055L1377.883070126488,35.34375000051028L1382.1930213158016,35.343750000306215L1386.5029725051154,35.34375000018372L1390.812923694429,35.34375000011022L1395.1228748837425,35.34375000006611L1399.4328260730563,35.34375000003968L1403.7427772623696,35.343750000023874L1408.0527284516834,35.34375000001427L1412.3626796409972,35.34375000000864L1416.6726308303105,35.34375000000517L1420.9825820196243,35.34375000000307L1425.2925332089378,35.34375000000182L1429.6024843982514,35.34375000000114L1433.9124355875651,35.34375000000074L1438.2223867768787,35.3437500000004L1442.5323379661922,35.34375000000023L1446.8422891555058,35.343750000000114L1451.1522403448196,35.343750000000114L1455.4621915341331,35.34375000000006L1459.7721427234467,35.34375L1464.0820939127605,35.34375L1468.392045102074,35.34375L1472.7019962913876,35.34375L1477.0119474807013,35.34375" fill="none"></path></g></g></g></g><g opacity="0.2"><g><g><g><path style="fill: none;" stroke="rgb(51, 187, 238)" stroke-width="2px" d="M132.30717641485305,333.5164772727273L136.61712760416665,335.3800568181818L140.9270787934803,332.2740909090909L145.2370299827939,320.47142045454547L149.5469811721075,337.24363636363637L153.85693236142112,339.7284090909091L158.16688355073472,334.7588636363636L162.47683474004836,340.3496022727273L166.78678592936197,339.1072159090909L171.09673711867558,338.4860227272727L175.4066883079892,339.7284090909091L179.71663949730282,339.1072159090909L184.02659068661643,335.3800568181818L188.33654187593004,324.8197727272727L192.64649306524367,332.2740909090909L196.95644425455728,338.4860227272727L201.26639544387092,340.3496022727273L205.5763466331845,331.03170454545455L209.8862978224981,338.4860227272727L214.19624901181174,338.4860227272727L218.50620020112535,332.8952840909091L222.816151390439,332.2740909090909L227.12610257975257,313.63829545454547L231.4360537690662,331.6528977272727L235.7460049583798,319.85022727272724L240.05595614769342,191.8844318181818L244.36590733700706,234.12556818181818L248.67585852632064,225.42886363636364L252.98580971563428,239.71630681818183L257.2957609049479,166.41551136363637L261.60571209426155,229.15602272727273L265.9156632835751,218.59573863636365L270.22561447288876,227.91363636363636L274.5355656622024,176.97579545454542L278.845516851516,181.94534090909087L283.15546804082953,181.32414772727273L287.4654192301432,232.26198863636364L291.7753704194568,239.71630681818183L296.0853216087704,211.76261363636362L300.395272798084,183.18772727272724L304.70522398739763,214.24738636363637L309.01517517671124,229.7772159090909L313.32512636602485,218.59573863636365L317.6350775553385,175.73340909090908L321.9450287446521,232.8831818181818L326.2549799339657,175.73340909090908L330.56493112327934,229.15602272727273L334.87488231259294,140.32539772727273L339.18483350190655,213.6261931818182L343.49478469122016,200.58113636363638L347.8047358805338,191.26323863636364L352.1146870698474,198.09636363636363L356.42463825916104,222.32289772727273L360.73458944847465,35.34375L365.04454063778826,80.06965909090911L369.35449182710187,200.58113636363638L373.6644430164155,35.34375L377.9743942057291,220.4593181818182L382.28434539504275,244.0646590909091L386.59429658435636,208.03545454545454L390.90424777366997,147.1585227272727L395.2141989629835,35.34375L399.52415015229724,35.34375L403.8341013416108,35.34375L408.1440525309244,35.34375L412.454003720238,35.34375L416.7639549095516,35.34375L421.0739060988653,35.34375L425.3838572881789,35.34375L429.6938084774925,35.34375L434.0037596668061,35.34375L438.31371085611977,35.34375L442.6236620454334,35.34375L446.93361323474693,35.34375L451.24356442406054,35.34375L455.55351561337415,35.34375L459.8634668026878,35.34375L464.1734179920014,35.34375L468.483369181315,35.34375L472.79332037062863,35.34375L477.1032715599423,35.34375L481.4132227492559,35.34375L485.7231739385695,122.31079545454546L490.03312512788307,114.23528409090909L494.3430763171967,35.34375L498.6530275065104,35.34375L502.96297869582395,35.34375L507.27292988513756,35.34375L511.58288107445117,35.34375L515.8928322637648,35.34375L520.2027834530785,35.34375L524.512734642392,35.34375L528.8226858317056,35.34375L533.1326370210193,35.34375L537.4425882103329,35.34375L541.7525393996465,123.55318181818183L546.0624905889601,35.34375L550.3724417782737,35.34375L554.6823929675874,165.79431818181817L558.992344156901,71.99414772727272L563.3022953462146,147.1585227272727L567.6122465355281,35.34375L571.9221977248418,35.34375L576.2321489141555,35.34375L580.542100103469,35.34375L584.8520512927827,35.34375L589.1620024820962,35.34375L593.4719536714099,35.34375L597.7819048607236,134.73465909090905L602.0918560500371,35.34375L606.4018072393508,35.34375L610.7117584286643,216.73215909090908L615.021709617978,221.08051136363636L619.3316608072915,112.99289772727269L623.6416119966052,35.34375L627.9515631859188,203.68710227272726L632.2615143752324,104.91738636363635L636.5714655645461,207.41426136363637L640.8814167538596,188.1572727272727L645.1913679431733,65.16102272727272L649.5013191324869,193.12681818181818L653.8112703218005,50.25238636363639L658.1212215111142,35.34375L662.4311727004277,35.34375L666.7411238897413,35.34375L671.0510750790551,35.34375L675.3610262683686,35.34375L679.6709774576822,35.34375L683.9809286469958,209.89903409090908L688.2908798363094,35.34375L692.600831025623,204.92948863636363L696.9107822149367,171.38505681818182L701.2207334042503,152.12806818181815L705.5306845935638,219.21693181818182L709.8406357828776,231.64079545454547L714.1505869721911,221.70170454545456L718.4605381615047,83.7968181818182L722.7704893508184,195.61159090909092L727.0804405401319,208.03545454545454L731.3903917294456,157.0976136363636L735.7003429187592,65.16102272727272L740.0102941080729,213.005L744.3202452973865,198.09636363636363L748.6301964867001,138.46181818181816L752.9401476760136,162.68835227272726L757.2500988653273,172.00624999999997L761.560050054641,128.52272727272725L765.8700012439544,177.59698863636362L770.1799524332681,35.34375L774.4899036225817,103.05380681818178L778.7998548118953,143.4313636363636L783.109806001209,194.36920454545455L787.4197571905225,186.29369318181818L791.7297083798362,126.03795454545457L796.0396595691498,165.79431818181817L800.3496107584634,39.07090909090908L804.6595619477771,132.87107954545453L808.9695131370906,35.34375L813.2794643264043,35.34375L817.589415515718,35.34375L821.8993667050315,35.34375L826.2093178943452,35.34375L830.5192690836587,35.34375L834.8292202729724,35.34375L839.1391714622861,35.34375L843.4491226515996,35.34375L847.7590738409133,35.34375L852.0690250302267,35.34375L856.3789762195404,35.34375L860.6889274088542,35.34375L864.9988785981676,35.34375L869.3088297874813,35.34375L873.6187809767948,35.34375L877.9287321661085,35.34375L882.2386833554222,35.34375L886.5486345447357,35.34375L890.8585857340494,35.34375L895.168536923363,35.34375L899.4784881126766,35.34375L903.7884393019903,35.34375L908.0983904913038,35.34375L912.4083416806175,35.34375L916.7182928699311,35.34375L921.0282440592447,35.34375L925.3381952485583,35.34375L929.6481464378719,35.34375L933.9580976271856,35.34375L938.2680488164992,203.68710227272726L942.5780000058127,214.24738636363637L946.8879511951264,35.34375L951.1979023844399,35.34375L955.5078535737536,35.34375L959.8178047630673,35.34375L964.1277559523808,35.34375L968.4377071416944,35.34375L972.7476583310081,35.34375L977.0576095203216,35.34375L981.3675607096353,35.34375L985.6775118989489,35.34375L989.9874630882625,35.34375L994.2974142775762,35.34375L998.6073654668897,35.34375L1002.9173166562034,35.34375L1007.227267845517,35.34375L1011.5372190348306,35.34375L1015.8471702241443,35.34375L1020.1571214134578,35.34375L1024.4670726027714,35.34375L1028.777023792085,35.34375L1033.0869749813987,35.34375L1037.3969261707123,35.34375L1041.7068773600258,35.34375L1046.0168285493396,35.34375L1050.3267797386532,35.34375L1054.6367309279667,35.34375L1058.9466821172805,35.34375L1063.256633306594,35.34375L1067.5665844959076,35.34375L1071.8765356852214,35.34375L1076.186486874535,35.34375L1080.4964380638485,35.34375L1084.806389253162,35.34375L1089.1163404424758,35.34375L1093.4262916317894,35.34375L1097.736242821103,35.34375L1102.0461940104165,35.34375L1106.3561451997302,35.34375L1110.666096389044,35.34375L1114.9760475783573,35.34375L1119.2859987676711,180.08176136363636L1123.595949956985,141.56778409090907L1127.9059011462982,219.21693181818182L1132.215852335612,227.91363636363636L1136.5258035249255,193.12681818181818L1140.835754714239,220.4593181818182L1145.1457059035529,201.20232954545455L1149.4556570928664,204.92948863636363L1153.76560828218,222.9440909090909L1158.0755594714938,35.34375L1162.3855106608073,35.34375L1166.6954618501209,35.34375L1171.0054130394344,35.34375L1175.3153642287482,35.34375L1179.6253154180617,35.34375L1183.9352666073753,35.34375L1188.245217796689,35.34375L1192.5551689860026,35.34375L1196.8651201753162,35.34375L1201.17507136463,35.34375L1205.4850225539435,35.34375L1209.794973743257,35.34375L1214.1049249325706,35.34375L1218.4148761218844,35.34375L1222.724827311198,35.34375L1227.0347785005115,35.34375L1231.344729689825,35.34375L1235.6546808791388,35.34375L1239.9646320684524,35.34375L1244.274583257766,35.34375L1248.5845344470795,35.34375L1252.8944856363933,35.34375L1257.2044368257068,35.34375L1261.5143880150204,35.34375L1265.8243392043341,35.34375L1270.1342903936477,35.34375L1274.4442415829612,35.34375L1278.754192772275,35.34375L1283.0641439615886,35.34375L1287.3740951509021,35.34375L1291.6840463402157,35.34375L1295.9939975295295,35.34375L1300.303948718843,35.34375L1304.6138999081566,35.34375L1308.9238510974703,35.34375L1313.2338022867837,35.34375L1317.5437534760974,35.34375L1321.8537046654112,35.34375L1326.1636558547245,35.34375L1330.4736070440383,35.34375L1334.783558233352,35.34375L1339.0935094226654,35.34375L1343.4034606119792,35.34375L1347.7134118012928,35.34375L1352.0233629906063,35.34375L1356.33331417992,35.34375L1360.6432653692336,35.34375L1364.9532165585472,35.34375L1369.2631677478607,35.34375L1373.5731189371745,35.34375L1377.883070126488,35.34375L1382.1930213158016,35.34375L1386.5029725051154,35.34375L1390.812923694429,35.34375L1395.1228748837425,35.34375L1399.4328260730563,35.34375L1403.7427772623696,35.34375L1408.0527284516834,35.34375L1412.3626796409972,35.34375L1416.6726308303105,35.34375L1420.9825820196243,35.34375L1425.2925332089378,35.34375L1429.6024843982514,35.34375L1433.9124355875651,35.34375L1438.2223867768787,35.34375L1442.5323379661922,35.34375L1446.8422891555058,35.34375L1451.1522403448196,35.34375L1455.4621915341331,35.34375L1459.7721427234467,35.34375L1464.0820939127605,35.34375L1468.392045102074,35.34375L1472.7019962913876,35.34375L1477.0119474807013,35.34375" fill="none"></path></g></g></g></g></g></g><g transform="translate(39, 377)" clip-path="url(#clip_1)"><clipPath id="clip_1"><rect width="1473" height="23"></rect></clipPath><g><g><line x1="127.99722522553942" y1="0" x2="127.99722522553942" y2="5" style="visibility: inherit;" fill="rgb(0, 0, 0)" stroke="rgb(204, 204, 204)" stroke-width="1px"></line><line x1="343.49478469122016" y1="0" x2="343.49478469122016" y2="5" style="visibility: inherit;" fill="rgb(0, 0, 0)" stroke="rgb(204, 204, 204)" stroke-width="1px"></line><line x1="558.992344156901" y1="0" x2="558.992344156901" y2="5" style="visibility: inherit;" fill="rgb(0, 0, 0)" stroke="rgb(204, 204, 204)" stroke-width="1px"></line><line x1="774.4899036225817" y1="0" x2="774.4899036225817" y2="5" style="visibility: inherit;" fill="rgb(0, 0, 0)" stroke="rgb(204, 204, 204)" stroke-width="1px"></line><line x1="989.9874630882625" y1="0" x2="989.9874630882625" y2="5" style="visibility: inherit;" fill="rgb(0, 0, 0)" stroke="rgb(204, 204, 204)" stroke-width="1px"></line><line x1="1205.4850225539435" y1="0" x2="1205.4850225539435" y2="5" style="visibility: inherit;" fill="rgb(0, 0, 0)" stroke="rgb(204, 204, 204)" stroke-width="1px"></line><line x1="1420.9825820196243" y1="0" x2="1420.9825820196243" y2="5" style="visibility: inherit;" fill="rgb(0, 0, 0)" stroke="rgb(204, 204, 204)" stroke-width="1px"></line></g><g transform="translate(0, 8)"><text x="127.99722522553942" y="0" dx="0em" dy="0.95em" style="text-anchor: middle; visibility: inherit; font-family: &quot;Helvetica Neue&quot;, sans-serif; font-size: 12px; font-weight: 200;" fill="rgb(50, 49, 63)" stroke="none" stroke-width="1px">0</text><text x="343.49478469122016" y="0" dx="0em" dy="0.95em" style="text-anchor: middle; visibility: inherit; font-family: &quot;Helvetica Neue&quot;, sans-serif; font-size: 12px; font-weight: 200;" fill="rgb(50, 49, 63)" stroke="none" stroke-width="1px">50</text><text x="558.992344156901" y="0" dx="0em" dy="0.95em" style="text-anchor: middle; visibility: inherit; font-family: &quot;Helvetica Neue&quot;, sans-serif; font-size: 12px; font-weight: 200;" fill="rgb(50, 49, 63)" stroke="none" stroke-width="1px">100</text><text x="774.4899036225817" y="0" dx="0em" dy="0.95em" style="text-anchor: middle; visibility: inherit; font-family: &quot;Helvetica Neue&quot;, sans-serif; font-size: 12px; font-weight: 200;" fill="rgb(50, 49, 63)" stroke="none" stroke-width="1px">150</text><text x="989.9874630882625" y="0" dx="0em" dy="0.95em" style="text-anchor: middle; visibility: inherit; font-family: &quot;Helvetica Neue&quot;, sans-serif; font-size: 12px; font-weight: 200;" fill="rgb(50, 49, 63)" stroke="none" stroke-width="1px">200</text><text x="1205.4850225539435" y="0" dx="0em" dy="0.95em" style="text-anchor: middle; visibility: inherit; font-family: &quot;Helvetica Neue&quot;, sans-serif; font-size: 12px; font-weight: 200;" fill="rgb(50, 49, 63)" stroke="none" stroke-width="1px">250</text><text x="1420.9825820196243" y="0" dx="0em" dy="0.95em" style="text-anchor: middle; visibility: inherit; font-family: &quot;Helvetica Neue&quot;, sans-serif; font-size: 12px; font-weight: 200;" fill="rgb(50, 49, 63)" stroke="none" stroke-width="1px">300</text></g><line x1="0" y1="0" x2="1473.84375" y2="0" fill="rgb(0, 0, 0)" stroke="rgb(204, 204, 204)" stroke-width="1px"></line></g></g></g></g></svg>