<svg viewBox="0 0 1513 400" xmlns="http://www.w3.org/2000/svg"><g><g><g><g><g><line x1="58.59375" y1="344.4179980443414" x2="53.59375" y2="344.4179980443414" style="visibility: inherit;" fill="rgb(0, 0, 0)" stroke="rgb(204, 204, 204)" stroke-width="1px"></line><line x1="58.59375" y1="307.6666400520138" x2="53.59375" y2="307.6666400520138" style="visibility: inherit;" fill="rgb(0, 0, 0)" stroke="rgb(204, 204, 204)" stroke-width="1px"></line><line x1="58.59375" y1="270.91528205968615" x2="53.59375" y2="270.91528205968615" style="visibility: inherit;" fill="rgb(0, 0, 0)" stroke="rgb(204, 204, 204)" stroke-width="1px"></line><line x1="58.59375" y1="234.16392406735855" x2="53.59375" y2="234.16392406735855" style="visibility: inherit;" fill="rgb(0, 0, 0)" stroke="rgb(204, 204, 204)" stroke-width="1px"></line><line x1="58.59375" y1="197.41256607503095" x2="53.59375" y2="197.41256607503095" style="visibility: inherit;" fill="rgb(0, 0, 0)" stroke="rgb(204, 204, 204)" stroke-width="1px"></line><line x1="58.59375" y1="160.66120808270335" x2="53.59375" y2="160.66120808270335" style="visibility: inherit;" fill="rgb(0, 0, 0)" stroke="rgb(204, 204, 204)" stroke-width="1px"></line><line x1="58.59375" y1="123.90985009037573" x2="53.59375" y2="123.90985009037573" style="visibility: inherit;" fill="rgb(0, 0, 0)" stroke="rgb(204, 204, 204)" stroke-width="1px"></line><line x1="58.59375" y1="87.15849209804816" x2="53.59375" y2="87.15849209804816" style="visibility: inherit;" fill="rgb(0, 0, 0)" stroke="rgb(204, 204, 204)" stroke-width="1px"></line><line x1="58.59375" y1="50.4071341057205" x2="53.59375" y2="50.4071341057205" style="visibility: inherit;" fill="rgb(0, 0, 0)" stroke="rgb(204, 204, 204)" stroke-width="1px"></line><line x1="58.59375" y1="13.65577611339296" x2="53.59375" y2="13.65577611339296" style="visibility: inherit;" fill="rgb(0, 0, 0)" stroke="rgb(204, 204, 204)" stroke-width="1px"></line></g><g transform="translate(48.59375, 0)"><text x="0" y="344.4179980443414" dx="0em" dy="0.3em" style="text-anchor: end; visibility: inherit; font-family: &quot;Helvetica Neue&quot;, sans-serif; font-size: 12px; font-weight: 200;" fill="rgb(50, 49, 63)" stroke="none" stroke-width="1px">0.01</text><text x="0" y="307.6666400520138" dx="0em" dy="0.3em" style="text-anchor: end; visibility: inherit; font-family: &quot;Helvetica Neue&quot;, sans-serif; font-size: 12px; font-weight: 200;" fill="rgb(50, 49, 63)" stroke="none" stroke-width="1px">1</text><text x="0" y="270.91528205968615" dx="0em" dy="0.3em" style="text-anchor: end; visibility: inherit; font-family: &quot;Helvetica Neue&quot;, sans-serif; font-size: 12px; font-weight: 200;" fill="rgb(50, 49, 63)" stroke="none" stroke-width="1px">100</text><text x="0" y="234.16392406735855" dx="0em" dy="0.3em" style="text-anchor: end; visibility: inherit; font-family: &quot;Helvetica Neue&quot;, sans-serif; font-size: 12px; font-weight: 200;" fill="rgb(50, 49, 63)" stroke="none" stroke-width="1px">1e+4</text><text x="0" y="197.41256607503095" dx="0em" dy="0.3em" style="text-anchor: end; visibility: inherit; font-family: &quot;Helvetica Neue&quot;, sans-serif; font-size: 12px; font-weight: 200;" fill="rgb(50, 49, 63)" stroke="none" stroke-width="1px">1e+6</text><text x="0" y="160.66120808270335" dx="0em" dy="0.3em" style="text-anchor: end; visibility: inherit; font-family: &quot;Helvetica Neue&quot;, sans-serif; font-size: 12px; font-weight: 200;" fill="rgb(50, 49, 63)" stroke="none" stroke-width="1px">1e+8</text><text x="0" y="123.90985009037573" dx="0em" dy="0.3em" style="text-anchor: end; visibility: inherit; font-family: &quot;Helvetica Neue&quot;, sans-serif; font-size: 12px; font-weight: 200;" fill="rgb(50, 49, 63)" stroke="none" stroke-width="1px">1e+10</text><text x="0" y="87.15849209804816" dx="0em" dy="0.3em" style="text-anchor: end; visibility: inherit; font-family: &quot;Helvetica Neue&quot;, sans-serif; font-size: 12px; font-weight: 200;" fill="rgb(50, 49, 63)" stroke="none" stroke-width="1px">1e+12</text><text x="0" y="50.4071341057205" dx="0em" dy="0.3em" style="text-anchor: end; visibility: inherit; font-family: &quot;Helvetica Neue&quot;, sans-serif; font-size: 12px; font-weight: 200;" fill="rgb(50, 49, 63)" stroke="none" stroke-width="1px">1e+14</text><text x="0" y="13.65577611339296" dx="0em" dy="0.3em" style="text-anchor: end; visibility: inherit; font-family: &quot;Helvetica Neue&quot;, sans-serif; font-size: 12px; font-weight: 200;" fill="rgb(50, 49, 63)" stroke="none" stroke-width="1px">1e+16</text></g><line x1="58.59375" y1="0" x2="58.59375" y2="377" fill="rgb(0, 0, 0)" stroke="rgb(204, 204, 204)" stroke-width="1px"></line></g></g><g transform="translate(58, 0)" clip-path="url(#clip_0)"><clipPath id="clip_0"><rect width="1454" height="377"></rect></clipPath><g><g><g><line x1="158.84687346854673" y1="0" x2="158.84687346854673" y2="377" fill="rgb(0, 0, 0)" stroke="rgb(60, 60, 60)" stroke-width="1px" opacity="0.25"></line><line x1="347.3256705850987" y1="0" x2="347.3256705850987" y2="377" fill="rgb(0, 0, 0)" stroke="rgb(60, 60, 60)" stroke-width="1px" opacity="0.25"></line><line x1="535.8044677016507" y1="0" x2="535.8044677016507" y2="377" fill="rgb(0, 0, 0)" stroke="rgb(60, 60, 60)" stroke-width="1px" opacity="0.25"></line><line x1="724.2832648182026" y1="0" x2="724.2832648182026" y2="377" fill="rgb(0, 0, 0)" stroke="rgb(60, 60, 60)" stroke-width="1px" opacity="0.25"></line><line x1="912.7620619347545" y1="0" x2="912.7620619347545" y2="377" fill="rgb(0, 0, 0)" stroke="rgb(60, 60, 60)" stroke-width="1px" opacity="0.25"></line><line x1="1101.2408590513064" y1="0" x2="1101.2408590513064" y2="377" fill="rgb(0, 0, 0)" stroke="rgb(60, 60, 60)" stroke-width="1px" opacity="0.25"></line><line x1="1289.7196561678584" y1="0" x2="1289.7196561678584" y2="377" fill="rgb(0, 0, 0)" stroke="rgb(60, 60, 60)" stroke-width="1px" opacity="0.25"></line></g><g><line x1="0" y1="344.4179980443414" x2="1454.40625" y2="344.4179980443414" fill="rgb(0, 0, 0)" stroke="rgb(60, 60, 60)" stroke-width="1px" opacity="0.25"></line><line x1="0" y1="307.6666400520138" x2="1454.40625" y2="307.6666400520138" fill="rgb(0, 0, 0)" stroke="rgb(60, 60, 60)" stroke-width="1px" opacity="0.25"></line><line x1="0" y1="270.91528205968615" x2="1454.40625" y2="270.91528205968615" fill="rgb(0, 0, 0)" stroke="rgb(60, 60, 60)" stroke-width="1px" opacity="0.25"></line><line x1="0" y1="234.16392406735855" x2="1454.40625" y2="234.16392406735855" fill="rgb(0, 0, 0)" stroke="rgb(60, 60, 60)" stroke-width="1px" opacity="0.25"></line><line x1="0" y1="197.41256607503095" x2="1454.40625" y2="197.41256607503095" fill="rgb(0, 0, 0)" stroke="rgb(60, 60, 60)" stroke-width="1px" opacity="0.25"></line><line x1="0" y1="160.66120808270335" x2="1454.40625" y2="160.66120808270335" fill="rgb(0, 0, 0)" stroke="rgb(60, 60, 60)" stroke-width="1px" opacity="0.25"></line><line x1="0" y1="123.90985009037573" x2="1454.40625" y2="123.90985009037573" fill="rgb(0, 0, 0)" stroke="rgb(60, 60, 60)" stroke-width="1px" opacity="0.25"></line><line x1="0" y1="87.15849209804816" x2="1454.40625" y2="87.15849209804816" fill="rgb(0, 0, 0)" stroke="rgb(60, 60, 60)" stroke-width="1px" opacity="0.25"></line><line x1="0" y1="50.4071341057205" x2="1454.40625" y2="50.4071341057205" fill="rgb(0, 0, 0)" stroke="rgb(60, 60, 60)" stroke-width="1px" opacity="0.25"></line><line x1="0" y1="13.65577611339296" x2="1454.40625" y2="13.65577611339296" fill="rgb(0, 0, 0)" stroke="rgb(60, 60, 60)" stroke-width="1px" opacity="0.25"></line></g></g></g><g><g><line x1="158.84687346854673" y1="0" x2="158.84687346854673" y2="377" fill="rgb(0, 0, 0)" stroke="rgb(153, 153, 153)" stroke-width="1.5px"></line></g></g><g><g><g><g><g><path stroke="rgb(51, 187, 238)" stroke-width="2px" d="M159.54424501787798,320.28451715881886L160.72223749985645,301.67747459507166L161.30652177091775,304.10995064188256L163.61538703559552,306.99587225087873L164.19967130665682,308.31893320452525L164.6049007204574,305.8510967068602L164.67086829944822,301.9443778199453L165.1232174125279,297.0238389097127L165.24572863065367,300.5004418152917L165.87713260099414,301.63680587638646L166.76298294744194,296.8524655262889L168.7043145577424,299.4673604479816L171.71055137175142,302.0633889620826L172.20059624425446,301.8006878676281L172.26656382324524,303.02863392035783L172.68121717690167,295.6463667767044L175.0843218401377,297.8262789337666L175.4895512539383,297.44910313095886L175.51782307350575,296.24120773106205L176.83717465332165,298.164101870109L177.21413224755474,297.0864289587033L178.33558109039822,296.91568902076256L180.8894687913275,295.597565695718L181.66223185950537,297.9638613401819L182.5669300856648,296.3651547102699L182.57635402552063,296.78079448649925L184.45171805683032,298.3484501016093L187.77836882593746,299.14171755002394L189.5877652782564,297.28925629139223L189.73854831594963,296.5643615844748L190.29456076744347,294.27003429801323L193.24425394231747,291.4160408752094L193.26310182202914,292.8374902458979L193.73429881482053,291.21393533623893L194.40339854458426,292.6433578614724L195.1573137330505,291.2099007747459L196.42954561358718,290.7929541651075L199.83158790154096,293.64847590079887L200.61377490957466,292.48631087312197L201.48077737631078,295.0470363467624L201.64098435385986,291.6871895320912L203.2147823097831,293.780335494334L204.2702635736358,290.42722988511275L205.99484456725222,292.15927780813325L207.5309467637521,281.10743439914495L209.51939807333173,282.822314390187L209.65133323131332,285.8715615125525L213.08164733883456,288.3710926700574L214.41042285850625,290.11920703079466L214.81565227230686,285.77931413762167L215.59783928034057,283.45513558270795L217.57686665006432,285.2313179293362L217.75592150732507,285.44142905617093L221.10142015614386,286.90085959673934L222.27941263812232,288.42582444233824L222.39249991639224,290.1042081870715L223.74012331577558,289.8406127184212L224.79560457962828,290.761840984419L226.5767292123797,291.7001332686325L228.71596355965255,288.07327710422635L229.45103086840712,287.5801687388912L229.4793026879746,283.81291846932925L229.93165180105433,282.5266569124916L232.63632253967685,284.9772600975341L232.96616043463078,286.82822825202993L234.45514293185155,279.944102944344L235.16193842103863,281.6439594867726L236.23626756460297,283.5686594652849L236.6226490986919,283.7248116917992L237.96084855821945,286.4095136398345L239.23308043875613,286.9997393643392L239.32731983731443,287.1360700127033L240.2037462439064,286.35733006677225L242.81417758397066,286.43950330483864L243.3513421557528,287.52260619172057L246.41412260889678,275.8919310025419L248.37430209890894,277.54153460931065L249.1847609265101,280.6722805538112L249.30727214463587,281.4313899473923L250.54180826574927,270.99701337949784L255.98884550241763,273.10639330791423L257.1479901046844,273.34255007838976L257.9019052931506,274.18543535516494L258.3071347069512,275.6999643981426L259.10816959469656,275.70181813391486L260.7385111897547,277.33891188364004L261.8882318521657,276.457296685345L261.91650367173315,278.24529519155135L262.49136400293867,250.65863365166808L263.0002567551534,254.234955482344L263.77301982333125,258.07737041034557L267.8253139613371,261.94299579484334L268.14572791643525,265.4154974162477L269.2671767592787,267.6626871866838L269.96454830860995,270.23822745490986L271.94357567833373,268.76825266001146L271.9906953776129,270.88568575464296L273.78124395022013,272.3102097243886L274.96866037205444,272.9919432905025L280.5005130674252,267.8830506175778L281.9800716247901,266.7364022753851L282.2345180008975,265.9213005873013L286.8051288309739,264.7130896222132L287.2857497636211,260.86373089455407L287.50250038030515,263.59189301290814L289.2930489529124,265.76438764066063L293.1662882336575,266.35602328298364L293.8542358431329,264.3759046182725L294.26888919678936,266.2754939638213L295.29609864107454,267.9474941353007L297.09607115353765,265.4400398208578L297.3787893492124,266.32281678404433L298.4248466732093,267.9804088264991L299.3106970196571,267.3447928951271L304.96506093315367,263.6018917384606L305.28547488825177,265.7887404021519L307.70742743119945,264.6211371089539L311.0246542604508,255.98891037374386L312.9565619308955,258.4398926407458L317.55544458053936,257.1191592396242L318.007793693619,255.7193189789773L319.97739712348704,257.1438951116104L320.2695392590177,250.16378102114624L322.34280602729973,251.14298314230774L322.550132704128,254.2067161858321L324.47261643471677,255.87653879626984L324.6045515926984,256.6047245859281L333.0295538238082,249.46167080061258L339.2964738279336,249.45363383429498L339.7959426402925,251.8067819378071L343.20740886810205,254.02336979620094L344.2346183123872,251.50372226837413L344.36655347036884,250.70911931099124L345.09219683926756,252.483675099658L347.58011696120604,252.84484654192477L348.12670547284404,251.23352481548645L348.2115209315465,249.93790653180673L348.9277403605894,251.25936569268146L349.9266779853071,251.34847539852646L350.0020695041537,251.4196451328308L350.6711692339175,251.6672500207773L351.7737701970493,250.02444143542232L352.7067402427763,248.58251637302027L353.07427389715355,249.829711011825L354.9684858081749,252.40548587879834L354.99675762774234,253.49871196302138L355.68470523721777,254.01620081254526L357.805091704779,246.80695984444293L358.40822385555197,247.70643931418434L359.2375305628648,247.84409230857418L360.05741333032176,245.66432617731104L361.9798970609106,247.29416734816004L365.0426775140546,220.05789559940777L368.7839816368181,223.94350781764865L369.5850165245635,227.6646740333524L369.8488868405267,231.52914329910524L370.923215984091,234.746171424893L377.1995599280722,237.36691529934026L377.29379932663045,239.19554504846568L377.7084526802869,241.06864753460545L377.9534751165384,240.0896577958382L378.5943030267347,240.3298893453699L379.30109851592175,242.64918797604702L379.92307854640643,244.6441210114036L380.9879837501149,246.79827284004404L382.21309593137244,242.36520275630735L382.3167592697866,233.56886752707354L382.5052380669031,232.8939050037803L384.73871181273427,235.53626883328462L386.7083152426022,238.18285256477395L387.980547123139,239.41066635553142L387.99939500285063,240.97340635323306L388.3575047173721,239.87039131421253L391.1752627342645,241.96882441878225L392.09880884013563,243.15328528334624L392.1742003589822,244.01325767851873L393.81396589389624,242.55061821525808L394.1249559091386,242.6181173256754L397.13119272314754,239.9839914037372L397.8756839717579,240.56869552751922L398.43169642325176,241.6564792258032L402.3991751025552,236.44936532030425L402.7290129975092,236.6694172668087L403.4263845468404,234.99601462250578L405.63158647310405,231.8710506800908L407.02632957176655,229.95898706047547L408.6001275276898,233.5776919102442L411.68175586054537,234.74199475273466L411.6911798004012,231.672355544532L411.9833219359318,233.16312354481016L414.9330151108059,214.92538979563872L415.0461023890758,217.7909855127681L415.0837981484991,219.84057672586965L415.09322208835493,221.96698963696136L416.17697517177515,225.58284617436425L418.3539052784713,227.9107101480336L419.27745138434244,230.2635398311508L419.60728927929637,233.59109859179594L421.36956603233614,236.0492606540119L422.2271445592164,229.06779701996274L427.14644116395846,229.3191006020026L428.13595484882035,231.89760351709268L432.1599771672587,234.46797061643062L432.40499960351025,236.9810976585868L433.02697963399487,237.99759061892598L434.336907273955,238.37563463211893L434.9211915450162,237.42506212321842L436.88137103502834,238.5724427647074L437.0321540727216,225.75316968283425L438.20072261484427,229.24497617998048L440.2551415034147,232.01583249311534L441.91375491804035,225.8376527171884L442.15877735429183,227.59581826205405L443.50640075367517,230.40456628431264L444.9482635516168,231.18023910954523L446.2958869510001,233.8765716003226L447.6340864105277,235.3511364257046L448.5199367569755,236.6717882096416L448.65187191495704,238.2114381557763L455.11669465605473,239.10993202842917L455.4653804307204,240.46378837718748L457.84963721424475,239.02490204526654L459.583642147717,231.2325945752677L460.11138277964346,229.76324958528957L460.75221068983967,232.7051728636093L462.66527048057264,232.71723226455043L464.8139287677013,233.4177439256438L465.822290332275,232.8077513859546L466.9060434156951,230.61888798303852L467.89555710055697,230.546034750179L469.13951716152627,230.18026954000044L469.21490868037284,230.18430258943087L470.4588687413421,227.3048337245546L471.8253400204371,223.26258733033882L471.84418790014877,222.08950007272236L472.6923424871733,224.61654208336464L473.3520182770812,227.03022526393775L473.67243223217935,229.92017373851388L473.93630254814246,221.9512832733458L476.99908300128646,224.50201768638814L477.08389845998886,227.43668611460427L477.19698573825883,229.6958495061982L477.3760405955196,221.9627220355622L477.53624757306864,222.76736958741537L478.0451403252833,217.52836191293306L478.15822760355326,218.45283025122535L478.39382609994897,221.1826911567396L478.74251187461454,224.17989650797182L479.9016564768813,225.03834682170677L480.8911701617432,224.43427301050417L482.97386086988115,220.65159453771648L483.1717636068535,220.39689891690134L484.5099630663811,212.62935762881423L485.20733461571234,214.5278265523737L486.9413395491846,217.15103495595076L492.12450646988975,216.09500614516287L492.3224092068622,217.39152806496534L492.5391598235462,220.1775966878576L493.5380974482639,220.5325795653914L494.38625203528835,222.60940256128814L496.2521921267422,218.70036087803672L496.98725943549675,220.66924139586405L497.9673491805029,222.69086711531466L498.1275561580519,223.97897563003468L498.7589601283924,225.2818992574106L500.7285635582603,225.55004552579L501.0018578140793,224.5669923733052L504.33793252304235,219.7893721090041L504.6206507187172,214.63714902782786L505.6384362231465,217.9018678593613L506.4206232311802,215.40905656370447L506.9577878029624,218.64811919774175L509.7378500604315,215.14538939420044L512.1221068439559,217.69385137779142L512.442520799054,218.87153742193544L515.0341042594066,213.6155833672621L516.0895855232593,215.20065966522574L519.0675505177009,217.2493150566043L521.3952636620903,219.27291143946763L521.5460466997835,213.83739004808893L524.0433907615778,205.96747897253368L525.1742635442772,208.3938883912891L526.5030390639488,211.0898035336353L529.4715801185346,214.412885252493L533.2976997000005,216.36068684967938L533.5615700159636,212.06944248240916L534.0421909486109,214.65009541625105L534.9563131146261,216.55232905572478L535.2484552501568,213.16129708656226L535.295574949436,214.68073959228371L536.2945125741537,210.95962289095374L538.8955199743622,213.32412525014433L540.8180037049509,216.37740663677258L542.2033228637576,214.65704097303947L542.3541059014508,205.54932210330404L542.3918016608741,173.37005346785708L542.7027916761165,177.20678638118915L542.891270473233,181.14319845483396L543.5792180827084,183.47853766543375L545.9069312270979,187.49096818974462L547.8294149576866,191.40714792203087L548.083861333794,195.08015740815154L548.7435371237019,197.68036924303746L550.6094772151558,201.34320997136214L550.7602602528491,204.45100584392466L556.2167214293733,206.6733441936188L559.1946864238147,207.70988946780352L559.3643173412196,208.4159197533326L561.3433447109435,208.9891343987401L564.1987984872593,210.3485528822991L569.2594541898386,211.36848787987321L570.0981848370074,210.31072686093606L570.3997509123938,211.12459153002482L571.0782745820134,209.89733656232215L571.3327209581207,206.51156709594292L571.370416717544,201.93240445230126L571.9641249284612,202.21260035898274L573.7358256213568,204.13482424962214L574.4897408098229,204.70057720297365L575.686581171513,204.42828856035663L575.7525487505038,204.82318319466566L576.1672021041602,206.5438323798948L576.6666709165191,203.26069457287986L579.3147980160068,203.04948822315544L581.4917281227029,203.0470156918513L582.8864712213654,202.714214584169L586.1471544114817,204.45406867023786L586.2319698701841,199.68174607676568L586.7314386825431,202.4583135706221L588.0036705630797,202.5093942115703L589.4266854813096,202.0725822625833L595.646485786156,203.17357681275794L595.7972688238491,203.8786600134636L596.5417600724595,204.51195874880153L597.3522189000607,202.43449212622102L604.3447822730848,202.70224679473492L604.9102186644344,203.0330190958089L607.5866175834894,201.81297194589615L608.0860863958484,202.5795552901794L608.3782285313789,201.2155104515542L608.7174903661888,199.7840158776689L609.085024020566,200.85579143161812L610.3855277206703,200.9222641524637L610.998083811299,196.8880714854435L611.2148344279831,173.3197826583813L612.2137720527008,177.30612409993992L613.2032857375627,181.2087966814672L613.6367869709309,185.011347321167L616.4168492283999,188.32513352208156L619.4513578619764,191.0345762568741L623.4848041202705,194.84498938370996L624.229295368881,196.8042622037986L625.4167117907152,191.01133988835335L630.4019759744481,189.84194465319393L630.8731729672394,193.1717551754951L631.7495993738313,194.98102867447187L631.9003824115246,197.5399245658125L632.1831006071994,198.5412423852741L632.8710482166748,199.00260929209975L636.2730905046286,200.9709662191217L638.0636390772358,202.94477981245413L639.5714694541682,201.400903636912L641.0321801318216,191.9882855089043L641.9086065384136,193.00298856738596L642.4269232304841,192.70317122821243L646.8373270830114,196.0380908335835L647.289676196091,198.3083368975311L647.3650677149377,199.60187072155082L648.7598108136002,200.9687515584012L649.2027359868241,200.6168660744107L649.8247160173087,201.32231339817704L651.4267857927995,199.6438634265276L651.94510248487,200.1404448828068L652.5199628160753,202.18037831799958L653.9995213734403,203.43331939852013L655.6204390286426,204.21216566631844L657.731401556348,203.92766693834298L658.0423915715904,203.2221656137999L659.484254369532,201.3872591036252L659.6256134673694,201.80187961827042L663.0276557553232,201.68450656983956L665.2705534410102,202.65661265861218L665.3365210200009,202.06496859590166L665.3742167794243,200.81951575231017L665.4119125388476,198.0567590716674L666.7406880585193,194.7139351013271L667.1553414121756,196.87054829970666L668.719715428243,193.05502739213375L668.8610745260804,194.2440656206257L669.0589772630528,196.37963474255696L669.2003363608902,197.55685585843653L670.3123612638778,199.97351256469452L674.5531341990003,196.91679457769627L675.6463112222764,198.75088350851775L676.8714234035339,200.6138182893881L677.2955006970461,200.34686912378126L679.2839520066258,200.68155674086265L680.2828896313436,200.15646938855298L682.5823309561654,201.52947010288298L682.6577224750121,200.8532434810097L684.1844007316561,202.10990090806274L684.683869544015,195.06619648792434L687.7466499971589,196.502806754745L690.0649392016926,198.20880281294302L691.6670089771833,197.52258077321804L691.7989441351648,197.51470200626505L692.6188269026219,196.6698372892979L694.305712136815,197.54015115528884L694.6167021520573,192.69167879511173L696.3035873862503,184.5102858237334L699.1307693429986,187.99701426286393L699.1873129821337,190.60761472391388L700.8741982163268,191.40218637568387L703.4752056165353,192.96253796742795L708.517013439403,194.21984697717818L709.883484718498,195.6809778986023L710.9766617417739,197.5506628802667L711.7776966295194,191.22370482847043L712.5127639382739,193.46388280854444L712.7672103143813,196.01575476915738L712.9274172919303,197.97788764275236L715.4436092334363,190.79296524493697L717.6488111597,190.21222143112607L718.0917363329238,191.16057936467777L719.232033055479,189.41082615617765L721.1922125454911,189.26957819400033L721.474930741166,183.72193446048493L726.2717161277822,183.79408218394676L726.3282597669171,187.06705965752258L726.5355864437454,189.1019170275285L727.3837410307699,192.17248385377832L729.061202325107,192.17382048099662L735.1584914118276,192.8755675808993L735.9406784198613,193.3709011913091L736.6097781496251,193.82868119719578L738.1364564062691,187.64116777548904L739.0411546324286,189.9584898349827L740.4170498513794,190.2982169038482L744.7426382452044,192.60240346974786L745.4965534336704,192.13316928723106L748.2954635708513,193.07157806398746L748.587605706382,194.79765572934068L751.6692340392376,189.10355621422525L753.0828250176118,185.56040694603468L754.9299172293539,188.31907576157212L756.2304209294581,191.06935219408578L756.890096719366,192.82529108143356L756.8995206592218,193.6189009023903L757.6911316071114,190.82883015717837L759.1801141043321,183.92721116751457L761.0083584363628,186.37448223720568L762.1675030386295,189.26566298513538L763.2041364227705,188.1423684213854L764.4009767844606,189.0812885593539L767.0962235832274,178.35316919370837L767.1904629817856,180.77748083768634L768.754836997853,183.8910441462228L770.6584728487301,186.85537381131763L772.2134229249417,188.80859308959185L774.0133954374047,189.46831727875315L774.4563206106287,190.0573275596951L775.2385076186624,192.18511515981487L775.9453031078494,183.47155676595946L776.2374452433801,184.49320888628662L777.3683180260795,187.2503502945541L777.7641235000241,189.1784575099416L778.3861035305089,186.98353532374662L780.2520436219627,185.4217464100401L781.5902430814901,186.7137243076883L783.9368041055912,180.76330338026136L787.225759115275,181.62656551060888L788.5451106950909,183.13178026031724L790.0623650118793,183.31190398054062L790.3262353278423,184.31819927215395L790.7503126213546,183.31838075794928L794.6989434209464,184.7999767307069L795.0193573760445,184.0978595094141L795.3868910304218,183.33347175898388L802.4548459222925,184.01724491824532L802.6244768396974,181.06060210860616L803.5385990057126,183.63730686243537L804.0192199383599,177.92466524125538L804.8014069463935,179.74174592236977L805.5364742551482,180.48677772151694L808.7311898662737,180.62344735159135L809.2872023177674,174.15096863837877L811.011783311384,177.22348885217596L811.1437184693656,178.4535897954086L813.6881822304389,181.06456544671258L813.8860849674113,183.02303411799417L815.6389377805953,183.79674745925513L816.1761023523775,186.39207612481772L816.9205936009879,184.94909269351635L818.0231945641196,186.09698912393014L823.1780896652574,184.09244200961882L824.290114568245,177.67212205889206L825.0063339972879,179.6358280589188L827.4471344199472,180.907460316356L828.2104735482692,181.90821991815588L832.2816155659868,179.620492472059L833.4690319878212,176.92163159302294L833.7140544240726,178.5333444800908L834.8072314473485,180.11543722519508L836.2585181851462,173.10009808305054L836.7862588170725,175.00104875431632L837.2668797497196,175.52400589862575L837.4742064265479,177.61497594835205L837.7851964417902,179.61682838538846L838.0207949381859,180.1580353918617L840.4710193007011,174.54726487858025L840.4898671804127,175.88938354643693L841.4511090457071,175.45417832729817L841.4793808652746,173.4543737719082L842.930667603072,175.92710866040608L844.4856176792835,176.23163750646728L845.8992086576576,176.78987105291392L847.1808644780502,179.52215995197764L848.7829342535408,179.62139787130548L850.092861893501,177.73809775173956L854.5315375655958,178.81827674953672L854.5786572648749,180.26855307410028L855.0215824380989,166.73115030636203L855.5870188294485,169.8689716293109L855.8037694461325,172.65248829218288L856.6236522135895,172.85039246970177L858.2822656282152,175.80161704088724L858.3482332072059,177.21008348690353L865.0109586852761,173.37178074037053L867.5554224463496,173.00673283114418L870.3637565233861,174.84892220087323L870.533387440791,175.2561050754464L871.2873026292573,175.39147644697437L874.6893449172111,174.07102345017915L875.8956092187569,175.55787118614606L876.3008386325575,173.7885624276343L877.422287475401,173.46401063175733L879.4295866646922,174.5747575182824L879.9102075973395,174.4563688310366L881.2672549365788,172.2234876790931L881.7101801098025,164.39418602817835L882.8127810729344,162.84719405425065L883.9059580962104,165.42714953150366L883.9719256752012,168.19231586477017L886.6577485341121,169.49498651180264L887.8451649559464,160.94426872465806L889.7864965662469,164.19040148454576L890.8514017699553,167.03209412549967L892.349808207032,169.7433133319567L893.2827782527589,170.9661644429827L895.4879801790225,173.65523256872237L896.1759277884979,172.853329458423L896.7130923602801,174.048921845611L901.5193016867522,168.3865308817868L902.1601295969484,170.10957867497183L902.8857729658471,171.90586683702907L903.0177081238288,173.17866335492343L903.385241778206,164.1724894460807L903.6868078535927,163.4583830808437L906.5516855697642,165.55282178695464L907.5788950140493,165.75230901739954L909.2657802482424,167.6207475698279L911.2919273172454,169.01203911858337L912.8280295137454,169.9979927829936L913.0447801304293,168.4991141988557L913.3557701456716,170.00656155714012L913.3934659050949,171.47958672400787L914.0060219957238,172.7066637698207L914.6185780863526,170.981911915378L916.7389645539138,169.32956086725855L916.889747591607,170.17901799009547L918.2467949308462,170.0056647155136L918.4918173670976,157.33477680386162L918.8405031417634,160.3340536725368L920.8478023310546,163.4989304884066L922.4498721065453,163.33030224040374L922.6289269638061,165.2960995835461L923.5901688291004,167.12635081137304L926.0780889510389,168.2848734666516L927.1429941547475,169.687088182051L927.4728320497014,171.32249683250944L931.4591586087165,171.48908584165363L938.8475274556853,159.31506437236484L939.1679414107834,160.7060555401988L939.9124326593939,161.53393487448574L942.0422430668109,163.7250910167032L942.532287939314,156.70886079883567L943.8516395191297,156.74151183248284L946.141656904096,158.81584538604557L948.5164897477645,161.17814437801124L950.0337440645527,162.70355872499596L952.3143375096629,162.94468173997777L952.6159035850494,161.5112978856293L954.4724197366473,153.39943872735333L954.6137788344848,155.376369983774L956.4231752868037,155.04132449756443L957.2242101745491,157.67614514538357L957.7331029267638,161.1901037308029L958.4681702355184,156.33440150912813L960.3718060863955,154.99686507718425L960.6733721617821,157.63808065328715L961.0220579364477,160.0925307543237L961.7759731249138,162.47068643434474L963.1989880431438,161.6607643118745L964.9706887360395,160.85197008431086L965.2628308715701,160.74448770715654L965.5738208868124,162.36254302587406L966.6481500303767,160.56262262636227L967.2418582412939,160.13154437200842L969.4659080472692,162.00955164305643L969.7392023030882,161.86267391125915L973.8668879599406,164.26038297031752L975.7234041115387,164.72181001406005L976.9579402326522,165.87435977175184L977.0804514507779,162.36763400586884L977.513952684146,163.54355557981555L977.7589751203974,163.51590602475554L979.1065985197807,165.27986467914468L982.7348153642745,163.31307432144328L983.2719799360566,162.22230306280304L984.2709175607743,162.92875733101465L984.883473651403,164.43049243623162L985.3075509449154,164.77865842157706L986.8436531414152,164.1291926732661L989.74622661701,158.32554610280286L991.9797003628413,160.32991591469553L992.6111043331819,161.94822680586418L994.8068823195896,157.10764229355087L996.1356578392613,158.07263249731477L1000.3481589548162,160.77523924900873L1001.1491938425617,162.60309940719L1001.2999768802548,163.2054786775209L1004.899921905181,148.23594035246862L1005.0601288827299,149.9360743650874L1006.2852410639877,150.72789539845957L1007.0485801923096,149.92471935518432L1007.6328644633709,152.69246649137554L1009.5365003142481,155.83331882584588L1011.5437995035394,150.48139334282988L1017.4243379735757,153.25574589186186L1017.6128167706923,156.0462040061805L1019.5541483809928,157.89301839197185L1021.1939139159068,155.5224695420708L1022.607504894281,157.19479090391084L1022.7959836913976,158.9579369045139L1022.8242555109649,136.3718555896226L1023.4085397820264,139.96774842829635L1023.6252903987105,143.63367475615954L1023.6535622182778,142.95134318235114L1027.03675662652,144.1291958476296L1027.2817790627714,147.66107302773244L1033.0209584349705,150.59769114929296L1033.5769708864643,153.57071706229542L1033.595818766176,150.09964803462162L1033.8879609017067,152.97698195125733L1034.5570606314704,146.5861540210984L1036.762262557734,148.64305883147387L1037.6763847237494,150.22575118089878L1040.0135218079947,152.28573573007793L1044.0658159460004,154.5343053941129L1048.5798831369418,154.636271013136L1048.9945364905982,154.79487544344474L1050.050017754451,155.67141357120136L1052.3871548386962,153.56411157822265L1053.3955164032698,148.8382850764722L1054.9598904193372,149.28037215836358L1056.1567307810271,144.88103492005143L1057.4478105412757,147.81314526836795L1057.9755511732021,150.74231971606406L1058.2771172485884,139.93855379809887L1058.9462169783521,141.47691005986175L1062.5273141235668,144.07832400787123L1063.3660447707352,145.30245034454916L1063.5827953874193,148.16137711548234L1066.6832715999867,150.9609838177756L1067.437186788453,153.15266230627628L1068.8884735262504,153.90932441714443L1069.5010296168791,154.92224213963092L1073.4402364766152,142.09342965279677L1074.7407401767193,141.28984536770628L1075.4004159666272,141.66030964576834L1076.060091756535,144.792379158293L1077.1909645392345,147.77036517332772L1077.605617892891,146.48979652733553L1078.8872737132833,149.0700083756486L1079.4244382850657,150.0280131556664L1080.2631689322343,151.52522858911956L1080.7720616844488,150.70784973068646L1081.5259768729152,150.59792207216293L1082.5626102570561,152.05471120159564L1082.6568496556145,152.08365760773813L1084.0044730549978,139.59276002245392L1084.6924206644733,142.42132642927248L1086.5018171167922,145.71376198502242L1087.1614929067,146.74460658491046L1087.6232659596355,149.65764379122737L1089.8001960663316,150.53420333256474L1092.6368019629358,151.22476376783672L1096.886998837914,135.8223864311737L1097.885936462632,139.34269472464814L1097.9047843423436,142.25830688355597L1100.449248103417,145.340275442359L1104.218824045748,148.5438251725837L1106.8763750850915,151.3575052669449L1107.0931257017755,152.82473213461788L1108.6198039584194,150.47813848577698L1109.628165522993,151.57188631360998L1110.1841779744868,146.726029255457L1110.2689934331893,146.77152184966135L1110.938093162953,150.1388313133345L1111.6448886521403,150.4678076752066L1112.4270756601738,152.430292039615L1113.1715669087841,150.1213054858725L1114.1233848342226,151.75713946374123L1114.3118636313393,151.90597458268368L1115.0280830603822,153.3807202715228L1115.5652476321645,152.009287857063L1115.6689109705785,150.99314011704456L1119.6646614694494,153.17449684262706L1119.853140266566,152.67955667124656L1123.2834543740873,152.65329839922612L1125.1870902249643,140.02571618189165L1125.4886563003508,142.6209969235816L1125.9975490525655,145.5458222495584L1126.84570363959,147.22481117808647L1128.6833719114766,148.88373963746318L1128.9755140470072,149.48776593553245L1129.4938307390776,149.62634387752956L1129.8236686340317,120.07618427225691L1129.9179080325898,123.97893255752675L1131.755576304476,127.74813462582648L1134.168104907568,131.60473312381143L1134.6864215996386,122.4260586170029L1138.7387157376445,126.31124989808873L1141.8391919502117,130.25203052134313L1142.38578046185,133.6633464317691L1145.872638208506,136.90142913174648L1146.852727953512,140.46553322719106L1146.9846631114935,142.82484804082836L1147.1637179687543,145.5104359445189L1147.5500995028433,146.54095065264684L1147.682034660825,146.91699949464117L1147.8233937586624,148.1519372128938L1147.945904976788,146.61206293700718L1148.3134386311654,149.10026947808055L1149.312376255883,150.8250833215051L1149.538550812423,149.58678651831383L1151.1594684676254,140.8403119154L1152.7521143032602,141.4257411875465L1154.4107277178857,143.48154938329913L1155.277730184622,143.89265206288331L1155.9562538542414,143.3304757664838L1156.0881890122232,144.94747483808953L1160.0650916313823,143.56092687722216L1160.6022562031646,145.71304994575024L1161.7614008054313,146.1628787774993L1163.420014220057,146.58710685075945L1164.3624082056397,134.24989539491838L1165.33307401079,137.4121975781764L1168.4806699226363,137.73613316585056L1174.7098941673385,138.16326664923676L1175.0868517615716,139.21736683185586L1175.397841776814,141.61277401451832L1177.1318467102863,143.43291601135383L1181.1652929685804,144.69442247594793L1182.4563727288287,142.16554029192713L1187.2814299350125,131.8956623747218L1188.6384772742515,135.22491404418713L1188.6479012141074,137.69298597598726L1189.1944897257454,140.57225147344704L1191.079277696911,137.5057881237126L1191.8237689455214,139.3478619221959L1194.1043623906316,132.539684817387L1196.375531895886,134.08718117744533L1197.5817961974321,135.37572696934186L1197.8927862126743,133.95912728659977L1198.6655492808522,133.88525309458433L1199.721030544705,132.79402854306468L1200.2864669360545,131.91018647304682L1201.3042524404839,132.67712878926437L1201.6435142752937,132.78149197388228L1201.8225691325545,132.32571675903256L1202.727267358714,133.30796425086623L1203.1419207123704,132.52605445963965L1207.034007872827,135.1978588240357L1207.420389406916,135.7333457170572L1208.2496961142288,136.08633306552687L1210.3418107622226,135.6000542470527L1211.783673560164,135.59875014012744L1213.5647981929158,132.2458407402217L1213.8286685088788,132.3243628573642L1219.058955128863,133.51438507020222L1220.8871994608937,134.09086878837695L1221.254733115271,135.00423300429017L1223.1300971465805,134.55103674853922L1227.0881518860283,132.48125894633424L1228.4169274056999,128.47143340077588L1229.6043438275342,128.77637233225173L1231.03678268562,128.61296674137765L1233.2891043111629,123.48437553428889L1236.229373546181,125.54983271887468L1237.8031715021043,123.11919724197915L1237.8785630209509,123.47469898170644L1240.1026128269261,125.58430471027737L1241.205213790058,127.514049324839L1243.8062211902663,126.61232021331679L1244.3056900026254,127.87701691198504L1247.6700365311556,130.1253829086485L1247.7831238094254,87.52018467254385L1250.1108369538151,91.58199624854308L1250.1768045328058,95.64203869453803L1251.1757421575237,99.63831954054751L1252.6929964743117,103.25935553304322L1253.5411510613362,107.16887442698123L1256.5945075746245,111.02381480357138L1258.2060012899708,114.44953545530302L1258.6677743429066,118.00411000449623L1259.025884057428,121.27945120133816L1259.346298012526,124.65387252839187L1259.7044077270475,122.74963880668824L1260.0719413814247,119.35558045423147L1261.165118404701,122.22966717490772L1261.5326520590781,122.5998605479952L1261.9001857134554,115.33701956374694L1262.032120871437,116.33434100278379L1262.192327848986,116.26562227421607L1263.2101133534154,118.6633027751169L1263.3985921505318,120.34177154676769L1263.7190061056301,118.19777781900996L1267.7336044842127,120.28115810387197L1269.5241530568198,122.56138575716696L1270.6173300800958,124.59043949801611L1272.690596848378,123.27353046090411L1272.963891104197,124.8674339316575L1277.3083273777333,124.86223141664476L1279.7302799206811,126.3619142486227L1280.0035741765003,127.86032423856179L1280.5784345077057,128.72941104685404L1283.4433122238772,128.20644315662273L1285.0265341196562,122.78253093556339L1289.8233195062726,121.88867214537004L1289.96467860411,119.86453631364827L1292.7635887412907,118.25259286479519L1298.0692668801216,117.21311148027593L1298.6347032714714,118.71651974058528L1301.2545585513913,119.98660070012858L1301.2639824912471,121.494129976755L1302.3100398152442,119.20356040502077L1302.5739101312072,119.6080260233964L1302.8566283268822,120.12251044431997L1303.243009860971,76.09275444032909L1304.3361868842471,80.12992885335836L1307.3141518786886,84.1410120025518L1307.7099573526334,88.15754938205248L1308.049219187443,92.14423240972496L1310.8010096253447,95.68134614087313L1311.0931517608753,99.18871846877681L1313.854366138633,101.49025690712318L1314.7307925452249,105.21257487545586L1314.8438798234947,108.18148077977327L1315.8333935083567,109.95370922519584L1318.933869720924,112.25505213599774L1323.4762087314327,113.87050848939776L1324.0322211829266,116.64137244496305L1324.2583957394666,117.14087428378934L1324.569385754709,116.89215535068854L1328.6876474717055,117.39496633839633L1329.30962750219,113.14038991441129L1329.5734978181533,114.35356288655726L1329.7808244949815,114.45111097986637L1332.7305176698555,112.68035345576413L1334.4174029040487,114.11979645988845L1334.8791759569845,111.63115735854399L1334.9074477765516,113.27149430961401L1335.0111111149658,101.49128407360467L1335.4257644686222,104.54642099016337L1337.5461509361835,104.4061102523745L1339.873864080573,71.82099112069068L1350.749090674198,75.55217546048692L1352.2474971112745,79.29175296705313L1353.039108059164,79.88855108212249L1355.3762451434093,81.4352043163342L1355.875713955768,80.99869907239503L1356.9029234000534,80.0385718986567L1358.1563074008784,82.79191947296187L1359.8903123343507,79.33655547846035L1361.0965766358966,79.5404627888829L1361.5960454482556,81.8437557025577L1361.9918509222002,78.95512332763752L1363.0190603664855,75.85599260664446L1363.0850279454762,77.7452383362733L1363.3865940208627,79.58111092492726L1363.6881600962492,79.00645025404026L1364.2630204274549,81.69997793346863L1364.4326513448596,81.4583137778223L1366.4682223537184,82.99737763077951L1368.2776188060373,80.72467260343149L1369.2577085510434,82.90324483530918L1369.8419928221047,82.07697727346783L1371.4817583570186,84.35975522236743L1373.4419378470309,86.02629933828018L1373.809471501408,88.44890320101126L1376.2125761646441,89.42609778020545L1376.5895337588772,84.15592584739653L1377.8334938198464,85.80048302585311L1378.568561128601,85.75090535126992L1378.6628005271593,83.41963031068389L1378.7758878054292,85.28022659942843L1378.851279324276,82.17448524732833L1379.115149640239,83.42108244168139L1379.5674987533187,84.79866435290262L1379.9727281671192,85.53141111407507L1381.1695685288094,87.2597142318213L1382.6020073868951,86.72647156790265L1383.5538253123339,81.60984124821857L1384.9014487117172,82.3752688123351L1384.9297205312846,84.50193378232768L1385.8155708777324,81.4883984268381L1387.2385857959623,82.85840119155796L1390.8856505201677,83.82256331178377L1391.1683687158425,83.84809859713317L1391.469934791229,85.05827904112346L1392.9871891080172,85.39120500957404L1393.552625499367,85.93442643107909L1393.7882239957626,83.79285077182476L1398.3117151265599,82.61735775124572L1398.4153784649739,83.66547470386632L1400.0928397593111,84.07841338492506L1400.3095903759952,83.7842054165792L1400.601732511526,83.38284588761417L1401.9399319710535,81.26154276462552L1402.0718671290351,79.69858582031964L1407.8770140802249,78.8793483937614L1409.4790838557155,75.79184239981993L1411.740829421114,57.447209620502235L1411.8916124588075,58.70299978161688L1413.1638443393442,62.68945694482852L1414.4737719793043,66.3288642062617L1415.5292532431567,70.02714485239125L1417.2067145374942,64.35362988421053L1417.5082806128805,67.74435366360495L1418.1868042825004,71.31154545918622L1420.6370286450153,74.31373997008916L1422.022347803822,70.8042310879348L1425.4997816106224,74.46040730023822L1425.6222928287482,76.62476541339873L1426.4233277164935,66.97537220865519L1428.03482143184,63.09417796733942L1429.7688263653124,66.70939376851368L1429.9855769819965,68.897976703947L1430.0326966812754,71.78618144167928L1430.221175478392,70.78518477050778L1431.22011310311,66.38651443124553L1434.4619484135146,69.84257889723665L1437.1760430919928,73.1783168623773L1439.5979956349406,75.13628338174652L1442.7738633663544,77.13550284947468L1443.442963096118,78.31777885145823L1444.1780304048727,80.42060640863423L1445.1581201498789,81.05274315740508L1447.1465714594583,75.33256855232003L1447.1936911587377,76.19017015479062L1447.335050256575,64.7181906939889L1450.444950408998,67.44672229866575L1450.7465164843845,71.21158691163765L1452.6030326359826,70.5092743772417L1454.770538802823,72.20975251909391" style="fill: none;" fill="none"></path></g></g></g></g><g opacity="0.2"><g><g><g><path stroke="rgb(51, 187, 238)" stroke-width="2px" d="M159.54424501787798,320.28451715881886L160.72223749985645,298.22277421339925L161.30652177091775,307.4514462580042L163.61538703559552,312.7268404978673L164.19967130665682,310.4612093941705L164.6049007204574,303.3506418441066L164.67086829944822,298.4286791361773L165.1232174125279,292.9265455952019L165.24572863065367,313.55360219972374L165.87713260099414,303.693978219655L166.76298294744194,292.74897806081515L168.7043145577424,306.38035631074194L171.71055137175142,308.89969730471563L172.20059624425446,301.4226544034406L172.26656382324524,305.3171494202345L172.68121717690167,290.5039318493436L175.0843218401377,302.90835489542826L175.4895512539383,296.9148810045996L175.51782307350575,294.71557227325974L176.83717465332165,302.3567741085044L177.21413224755474,295.70175511082437L178.33558109039822,296.6662443202466L180.8894687913275,293.9560727582399L181.66223185950537,303.7836614233727L182.5669300856648,294.4432197848622L182.57635402552063,297.4478945688836L184.45171805683032,301.4920537957887L187.77836882593746,300.5024520402576L189.5877652782564,295.12987692435087L189.73854831594963,295.587274280168L190.29456076744347,291.72986186707885L193.24425394231747,288.4453211596842L193.26310182202914,295.5982645812329L193.73429881482053,289.26808853329146L194.40339854458426,295.42436649115973L195.1573137330505,289.4507239458175L196.42954561358718,290.2057354260828L199.83158790154096,301.92008516995975L200.61377490957466,291.009524377801L201.48077737631078,301.7360211890137L201.64098435385986,288.3697513165037L203.2147823097831,298.5490769004893L204.2702635736358,287.1141745037988L205.99484456725222,295.76566393695236L207.5309467637521,275.0940082950777L209.51939807333173,286.37863996903735L209.65133323131332,295.4271696210004L213.08164733883456,294.7738613871331L214.41042285850625,293.77282653396935L214.81565227230686,281.88411031791685L215.59783928034057,280.8906133410062L217.57686665006432,288.96836229718224L217.75592150732507,285.7673467610227L221.10142015614386,289.7586688146728L222.27941263812232,291.45500657836635L222.39249991639224,293.5554965212233L223.74012331577558,289.4608585916143L224.79560457962828,292.38012853950454L226.5767292123797,293.35372263569593L228.71596355965255,284.5870300803133L229.45103086840712,286.89331835352334L229.4793026879746,280.2415158598295L229.93165180105433,280.9182626325611L232.63632253967685,291.1598507529935L232.96616043463078,290.79339495470737L234.45514293185155,274.9619854175197L235.16193842103863,285.15682136309414L236.23626756460297,287.7674996217827L236.6226490986919,283.9649228069614L237.96084855821945,293.71930739097985L239.23308043875613,287.9759897879235L239.32731983731443,287.34503478584713L240.2037462439064,285.31547014663033L242.81417758397066,286.5643717567841L243.3513421557528,289.48542029542955L246.41412260889678,269.78041387457995L248.37430209890894,280.91128939067454L249.1847609265101,290.8475687474284L249.30727214463587,282.72543610537537L250.54180826574927,265.09788375829805L255.98884550241763,277.93293791004123L257.1479901046844,273.71042890218837L257.9019052931506,275.6445667486044L258.3071347069512,278.701514256956L259.10816959469656,275.7045995451871L260.7385111897547,280.67357529333367L261.8882318521657,275.2943129837526L261.91650367173315,282.01781129587187L262.49136400293867,243.4986422734426L263.0002567551534,269.27360266842027L263.77301982333125,279.0411890935531L267.8253139613371,283.72813416692986L268.14572791643525,279.00061801176855L269.2671767592787,273.0026523156377L269.96454830860995,276.99841445637117L271.94357567833373,266.97252774676883L271.9906953776129,275.7411048142196L273.78124395022013,275.078778514025L274.96866037205444,274.1379792829309L280.5005130674252,263.6053224271207L281.9800716247901,265.2763712685761L282.2345180008975,264.8362396184332L286.8051288309739,263.18697707335576L287.2857497636211,257.24362555252424L287.50250038030515,271.13372645288877L289.2930489529124,270.8208822743148L293.1662882336575,267.33484789726515L293.8542358431329,262.10243689323187L294.26888919678936,270.3937382919067L295.29609864107454,271.3806004504089L297.09607115353765,262.7295690533572L297.3787893492124,267.86239741275824L298.4248466732093,271.37268188853443L299.3106970196571,266.47725895947724L304.96506093315367,260.0450862268301L305.28547488825177,270.8987297083598L307.70742743119945,263.13849417486836L311.0246542604508,250.4914408208544L312.9565619308955,264.6241609280284L317.55544458053936,255.47494569474657L318.007793693619,253.99408462671886L319.97739712348704,259.912596227189L320.2695392590177,245.1493736791357L322.34280602729973,252.8821597339316L322.550132704128,263.86856042256915L324.47261643471677,259.30345565394566L324.6045515926984,257.8391155568912L333.0295538238082,244.39362295930138L339.2964738279336,249.44159354048972L339.7959426402925,257.57187550182596L343.20740886810205,259.2456576439332L344.2346183123872,248.7837528702759L344.36655347036884,249.6483597141748L345.09219683926756,256.21585301394646L347.58011696120604,253.41923329331388L348.12670547284404,249.29942791585384L348.2115209315465,248.3197585664124L348.9277403605894,253.77230370459637L349.9266779853071,251.48403381798218L350.0020695041537,251.52760412010792L350.6711692339175,252.05368607618956L351.7737701970493,248.06017267667127L352.7067402427763,246.81483466679555L353.07427389715355,252.1653577143819L354.9684858081749,259.16680659082976L354.99675762774234,255.48381292178232L355.68470523721777,254.8613689890987L357.805091704779,241.71753442754297L358.40822385555197,249.2800668494408L359.2375305628648,248.05512874713588L360.05741333032176,243.21915678778012L361.9798970609106,250.60858205850155L365.0426775140546,212.9048144945573L368.7839816368181,246.51289171660537L369.5850165245635,245.35932884428613L369.8488868405267,253.2712489160249L370.923215984091,245.64247480083588L377.1995599280722,244.3492145729726L377.29379932663045,243.09166103659567L377.7084526802869,245.10302195160244L377.9534751165384,238.81509478944844L378.5943030267347,240.70436533148583L379.30109851592175,248.27537265588248L379.92307854640643,249.07420154306203L380.9879837501149,251.78706349609186L382.21309593137244,238.42063926444732L382.3167592697866,228.0300262383253L382.5052380669031,231.97775234250545L384.73871181273427,242.62748367120835L386.7083152426022,245.2955353961862L387.980547123139,241.70095240411607L387.99939500285063,244.10372555284064L388.3575047173721,238.457842814565L391.1752627342645,246.7563325737739L392.09880884013563,245.34341999135137L392.1742003589822,245.50670008672827L393.81396589389624,240.76220790988071L394.1249559091386,242.72044867334694L397.13119272314754,237.17608535072446L397.8756839717579,241.53487711489095L398.43169642325176,243.6295871810833L402.3991751025552,232.12659871548342L402.7290129975092,237.0113080670026L403.4263845468404,233.00265155823166L405.63158647310405,228.71000704583733L407.02632957176655,227.74590970789043L408.6001275276898,249.30179032193195L411.68175586054537,236.886169008991L411.6911798004012,228.54928418776842L411.9833219359318,236.10224610354646L414.9330151108059,208.1156523737842L415.0461023890758,226.123797005488L415.0837981484991,224.45683953095008L415.09322208835493,226.85476389668844L416.17697517177515,241.25886914699916L418.3539052784713,233.5717613593821L419.27745138434244,236.0273125853866L419.60728927929637,245.5314686844502L421.36956603233614,242.265385103189L422.2271445592164,224.0529393900796L427.14644116395846,229.71154712426338L428.13595484882035,238.6721219535491L432.1599771672587,241.20320729863786L432.40499960351025,243.4463879383205L433.02697963399487,239.81598005162624L434.336907273955,238.97855920601944L434.9211915450162,236.18276073915314L436.88137103502834,240.67832643941853L437.0321540727216,219.46430484246952L438.20072261484427,243.07974618909392L440.2551415034147,239.79366961855715L441.91375491804035,221.10984079036135L442.15877735429183,231.27917852433592L443.50640075367517,238.39897616625248L444.9482635516168,232.50651831262263L446.2958869510001,241.24768125183823L447.6340864105277,238.24807226671575L448.5199367569755,239.18276846212717L448.65187191495704,241.27972842565595L455.11669465605473,240.68154447156027L455.4653804307204,243.05584861347575L457.84963721424475,237.2602702214067L459.583642147717,225.96456910787504L460.11138277964346,227.968152170894L460.75221068983967,241.52029093221492L462.66527048057264,232.73535560338948L464.8139287677013,234.59931744731014L465.822290332275,231.9721691031672L466.9060434156951,228.1660827107518L467.89555710055697,230.43798693665357L469.13951716152627,229.66125400962207L469.21490868037284,230.19035598771327L470.4588687413421,224.31574657832826L471.8253400204371,219.53114526560765L471.84418790014877,220.600959876315L472.6923424871733,231.14644423998257L473.3520182770812,233.051466493366L473.67243223217935,238.40322971459543L473.93630254814246,216.63242779209466L476.99908300128646,231.14341399904816L477.08389845998886,236.20448367123365L477.19698573825883,235.08245933727724L477.3760405955196,216.71205896503574L477.53624757306864,224.15051225192838L478.0451403252833,213.19114349003084L478.15822760355326,220.07780302859024L478.39382609994897,228.7337592027566L478.74251187461454,233.36660779685724L479.9016564768813,226.52872390449159L480.8911701617432,223.60610407941002L482.97386086988115,217.0709796196544L483.1717636068535,220.02947699159037L484.5099630663811,207.3685778783273L485.20733461571234,218.64249951521896L486.9413395491846,224.1456602506158L492.12450646988975,214.7342006642117L492.3224092068622,219.84430849694667L492.5391598235462,228.041552804104L493.5380974482639,221.09653973554387L494.38625203528835,227.32056011830804L496.2521921267422,215.0453509809062L496.98725943549675,225.0125226706606L497.9673491805029,227.21116920022533L498.1275561580519,226.41160389177756L498.7589601283924,227.75006179880762L500.7285635582603,225.9699545911131L501.0018578140793,223.28783623454058L504.33793252304235,215.66969497596793L504.6206507187172,210.33945238200124L505.6384362231465,229.23025842338572L506.4206232311802,212.7100270450884L506.9577878029624,229.7408362977999L509.7378500604315,211.73647204840958L512.1221068439559,224.32447162758336L512.442520799054,221.04618296996628L515.0341042594066,209.27072019513997L516.0895855232593,218.3916182092121L519.0675505177009,221.86234248358306L521.3952636620903,223.79992704184164L521.5460466997835,209.4129475118944L524.0433907615778,200.67693651687574L525.1742635442772,214.4702947125808L526.5030390639488,218.45870321546312L529.4715801185346,226.30790266494577L533.2976997000005,220.63462803249504L533.5615700159636,208.20036292359643L534.0421909486109,221.43503377932353L534.9563131146261,220.67901045165593L535.2484552501568,209.82366288368576L535.295574949436,217.69528306789923L536.2945125741537,207.4159375514571L538.8955199743622,219.13649445098127L540.8180037049509,225.96243991473315L542.2033228637576,212.61943728928964L542.3541059014508,199.9348384303797L542.3918016608741,166.14300689489548L542.7027916761165,197.98213177590213L542.891270473233,206.1547074667006L543.5792180827084,189.1701737307508L545.9069312270979,218.6994825985046L547.8294149576866,215.353024291518L548.083861333794,211.7847458815516L548.7435371237019,204.56085934157176L550.6094772151558,217.85426774920265L550.7602602528491,214.44621916456927L556.2167214293733,211.91757885807127L559.1946864238147,209.57135602415548L559.3643173412196,209.60798339102425L561.3433447109435,209.93442738744696L564.1987984872593,212.95430908113653L569.2594541898386,213.19424743363723L570.0981848370074,208.94800240880912L570.3997509123938,212.5259518217174L571.0782745820134,208.3509947703078L571.3327209581207,203.17733185966213L571.370416717544,197.91219573037L571.9641249284612,202.6522506462143L573.7358256213568,208.32566948925876L574.4897408098229,205.63234963920775L575.686581171513,204.036520223083L575.7525487505038,205.45477128887023L576.1672021041602,210.11693353814007L576.6666709165191,199.9934925220118L579.3147980160068,202.74280330319422L581.4917281227029,203.04330833064168L582.8864712213654,202.23967136945456L586.1471544114817,208.0833571800087L586.2319698701841,195.56467631310892L586.7314386825431,210.26835440390408L588.0036705630797,202.58663349087584L589.4266854813096,201.45916436058224L595.646485786156,205.17584209494538L595.7972688238491,205.068921881986L596.5417600724595,205.5674356302241L597.3522189000607,200.07630447441554L604.3447822730848,203.12151561015548L604.9102186644344,203.55639649222348L607.5866175834894,200.27427485882734L608.0860863958484,203.88812163248764L608.3782285313789,199.52673629501075L608.7174903661888,198.02681266416397L609.085024020566,202.79377460515187L610.3855277206703,201.023023057148L610.998083811299,193.16119387941927L611.2148344279831,166.26116143585563L612.2137720527008,205.80589257706197L613.2032857375627,204.51633744347356L613.6367869709309,204.74059849745788L616.4168492283999,200.1268820230326L619.4513578619764,198.47548090706488L623.4848041202705,214.80262131799097L624.229295368881,201.11584104486192L625.4167117907152,186.43593543318178L630.4019759744481,188.35737380259343L630.8731729672394,205.13504319796036L631.7495993738313,198.81794579532192L631.9003824115246,204.22016920702586L632.1831006071994,200.32725728214572L632.8710482166748,199.74888581584645L636.2730905046286,205.3125155723791L638.0636390772358,207.30440267121L639.5714694541682,199.53222802821205L641.0321801318216,186.30319019227278L641.9086065384136,194.81754938938707L642.4269232304841,192.27356210043286L646.8373270830114,208.05364752183067L647.289676196091,203.73842788169264L647.3650677149377,202.04748566822698L648.7598108136002,203.59293478444891L649.2027359868241,200.11652329515326L649.8247160173087,202.51326791443358L651.4267857927995,197.64572132015982L651.94510248487,200.9485476404444L652.5199628160753,206.7633327636791L653.9995213734403,205.78248657238868L655.6204390286426,205.54464305553944L657.731401556348,203.51907642645048L658.0423915715904,202.26864431559233L659.484254369532,199.24384010044466L659.6256134673694,202.46723092894678L663.0276557553232,201.51162162314978L665.2705534410102,204.38084615280667L665.3365210200009,201.25240863322074L665.3742167794243,199.25393618430618L665.4119125388476,195.15265490989404L666.7406880585193,191.40757617020986L667.1553414121756,201.86838165983193L668.719715428243,189.45489635357913L668.8610745260804,196.44468998646622L669.0589772630528,201.3005731356742L669.2003363608902,199.73044003171987L670.3123612638778,206.00760133302563L674.5531341990003,193.8026559400757L675.6463112222764,202.66380160339946L676.8714234035339,204.61630281585593L677.2955006970461,199.96247639963653L679.2839520066258,201.21147485185938L680.2828896313436,199.42843278801377L682.5823309561654,204.1688100621212L682.6577224750121,199.93553769104219L684.1844007316561,204.46782946805664L684.683869544015,190.0306815007242L687.7466499971589,199.30211787230633L690.0649392016926,201.73938818900325L691.6670089771833,196.5926134388832L691.7989441351648,197.50289842111584L692.6188269026219,195.54973354157588L694.305712136815,199.05446705480355L694.6167021520573,188.53737694241875L696.3035873862503,179.13214383253944L699.1307693429986,201.76529548038437L699.1873129821337,197.5394222854514L700.8741982163268,192.76548546430143L703.4752056165353,196.0864102195812L708.517013439403,196.57931307305856L709.883484718498,198.5431698607463L710.9766617417739,201.57429990965846L711.7776966295194,186.43971597961783L712.5127639382739,198.77669096262312L712.7672103143813,202.66255205795412L712.9274172919303,202.29888663267158L715.4436092334363,185.71136715884393L717.6488111597,189.4133949766942L718.0917363329238,192.8351014676294L719.232033055479,187.34579404825251L721.1922125454911,189.06228589355104L721.474930741166,179.24909233285373L726.2717161277822,183.90354168808588L726.3282597669171,198.47298312886187L726.5355864437454,193.6674364792277L727.3837410307699,201.88500842757807L729.061202325107,192.17582584167118L735.1584914118276,194.05948766753733L735.9406784198613,194.1768002164L736.6097781496251,194.56870221434318L738.1364564062691,182.90978895513018L739.0411546324286,195.57665546338708L740.4170498513794,190.83656627929406L744.7426382452044,198.16753152272182L745.4965534336704,191.47731446941955L748.2954635708513,194.72540922682464L748.587605706382,198.38658512122856L751.6692340392376,184.56893743043048L753.0828250176118,182.12609384638208L754.9299172293539,196.02869878814084L756.2304209294581,198.73239922123483L756.890096719366,196.5020500207701L756.8995206592218,194.98030963701163L757.6911316071114,187.90464436994796L759.1801141043321,178.93917015526708L761.0083584363628,192.54234515162986L762.1675030386295,197.75640950831956L763.2041364227705,186.70768395311904L764.4009767844606,190.73618124885928L767.0962235832274,172.39835833423794L767.1904629817856,186.84476146544517L768.754836997853,193.93108167837127L770.6584728487301,195.81871472007617L772.2134229249417,193.1002810968456L774.0133954374047,190.57300650736394L774.4563206106287,191.03135988960986L775.2385076186624,197.07785738615743L775.9453031078494,177.95345036121958L776.2374452433801,186.32264889473316L777.3683180260795,194.95147261240263L777.7641235000241,193.3883162977652L778.3861035305089,184.52565342507992L780.2520436219627,183.53558925179658L781.5902430814901,189.15561173330312L783.9368041055912,176.12434866301996L787.225759115275,183.12663915353124L788.5451106950909,186.1087783128985L790.0623650118793,183.5899496618539L790.3262353278423,186.1148118255993L790.7503126213546,182.0203262261329L794.6989434209464,187.7151810252887L795.0193573760445,183.14846351164755L795.3868910304218,182.30878264591908L802.4548459222925,185.16712914743525L802.6244768396974,178.01648488308513L803.5385990057126,190.40312321388143L804.0192199383599,173.3823393433252L804.8014069463935,183.6024703341183L805.5364742551482,181.75358260013135L808.7311898662737,180.8329431095367L809.2872023177674,169.31340644527026L811.011783311384,186.95056739732524L811.1437184693656,180.74920978097893L813.6881822304389,187.99823380603726L813.8860849674113,187.3319669457181L815.6389377805953,185.11920314259226L816.1761023523775,193.24858093843844L816.9205936009879,183.18034928044378L818.0231945641196,188.20403598904915L823.1780896652574,181.7975325488361L824.290114568245,172.85360864155612L825.0063339972879,183.96201463535186L827.4471344199472,183.30083180764547L828.2104735482692,183.6930475892709L832.2816155659868,177.0857253484848L833.4690319878212,174.0649739682113L833.7140544240726,181.7974496503789L834.8072314473485,183.2982593546708L836.2585181851462,168.07397076046524L836.7862588170725,179.12363515962357L837.2668797497196,176.37891303136223L837.4742064265479,182.37601034819681L837.7851964417902,184.07016992602678L838.0207949381859,181.04558013258995L840.4710193007011,170.047597374716L840.4898671804127,178.45264949657948L841.4511090457071,174.84287382718188L841.4793808652746,171.1636173945951L842.930667603072,182.20837426843127L844.4856176792835,176.7113941108979L845.8992086576576,177.70805424145857L847.1808644780502,187.0864485685576L848.7829342535408,179.77260764457918L850.092861893501,175.55083878162608L854.5315375655958,180.77467054389703L854.5786572648749,183.10282449154386L855.0215824380989,160.34885350884L855.5870188294485,180.1007118798557L855.8037694461325,180.50192087756787L856.6236522135895,173.1567665565996L858.2822656282152,184.67788078343284L858.3482332072059,179.9380626396104L865.0109586852761,169.7581868849778L867.5554224463496,172.48868043947394L870.3637565233861,178.7868582346924L870.533387440791,175.9086993819474L871.2873026292573,175.59893891159888L874.6893449172111,172.42710000000383L875.8956092187569,178.4867585766321L876.3008386325575,171.70538620373412L877.422287475401,173.00066444111815L879.4295866646922,176.59864661033916L879.9102075973395,174.28201506908206L881.2672549365788,169.73396061549272L881.7101801098025,159.1153913162369L882.8127810729344,160.97547207524295L883.9059580962104,172.20870591760306L883.9719256752012,175.9382203121757L886.6577485341121,171.96254039120126L887.8451649559464,155.46774760339966L889.7864965662469,175.34729683728892L890.8514017699553,175.2205691323562L892.349808207032,177.19373139099324L893.2827782527589,173.24489436889624L895.4879801790225,180.98797902624506L896.1759277884979,171.78389983794196L896.7130923602801,176.2646005174944L901.5193016867522,163.86515083434276L902.1601295969484,173.68966843915769L902.8857729658471,175.70339420152658L903.0177081238288,175.57479985767455L903.385241778206,158.58227170654183L903.6868078535927,162.49438949706942L906.5516855697642,170.32614657847142L907.5788950140493,166.0612132254223L909.2657802482424,171.64047320405166L911.2919273172454,171.6969210436967L912.8280295137454,171.75142543064743L913.0447801304293,166.6746973211851L913.3557701456716,172.98943511735953L913.3934659050949,174.3725299159751L914.0060219957238,174.99523271758716L914.6185780863526,168.9402020333939L916.7389645539138,167.3561940598751L916.889747591607,171.65131954111143L918.2467949308462,169.75249715538683L918.4918173670976,151.06643414886028L918.8405031417634,169.53508260464085L920.8478023310546,173.95077407096716L922.4498721065453,163.08385818727263L922.6289269638061,169.6291894435093L923.5901688291004,171.0274524468578L926.0780889510389,170.4159388402015L927.1429941547475,172.39934207484077L927.4728320497014,174.65244933522206L931.4591586087165,171.74567686570015L938.8475274556853,153.11870132717306L939.1679414107834,163.39018660461352L939.9124326593939,162.96311561655443L942.0422430668109,168.85122252944592L942.532287939314,151.6824378929502L943.8516395191297,156.79074023436817L946.141656904096,163.51826743562935L948.5164897477645,166.98131223690626L950.0337440645527,165.73393403169L952.3143375096629,163.3206022062194L952.6159035850494,159.75219465976832L954.4724197366473,148.0404744041017L954.6137788344848,159.74634309516657L956.4231752868037,154.56373964118632L957.2242101745491,164.7291567897463L957.7331029267638,175.32209451719544L958.4681702355184,152.17659213532824L960.3718060863955,153.33530558616235L960.6733721617821,164.7234658997891L961.0220579364477,166.29216608218792L961.7759731249138,168.34036729581692L963.1989880431438,160.58183087896214L964.9706887360395,159.77437212670011L965.2628308715701,160.58593058350868L965.5738208868124,165.64420065621786L966.6481500303767,158.45121545128603L967.2418582412939,159.52567276719446L969.4659080472692,166.05936965149735L969.7392023030882,161.6473047715332L973.8668879599406,170.21303864377427L975.7234041115387,165.4681914815551L976.9579402326522,167.99191174476374L977.0804514507779,158.9561966331266L977.513952684146,165.71417413302763L977.7589751203974,163.47461048461287L979.1065985197807,168.98043392913416L982.7348153642745,161.0513574527786L983.2719799360566,160.82317630182737L984.2709175607743,164.1216277701716L984.883473651403,167.39834507160413L985.3075509449154,165.33115847599993L986.8436531414152,163.24448400292752L989.74622661701,153.74575830406806L991.9797003628413,164.79174200085603L992.6111043331819,165.2305928266916L994.8068823195896,152.95717256796124L996.1356578392613,159.78192243247662L1000.3481589548162,168.179660725451L1001.1491938425617,166.49685053663143L1001.2999768802548,164.20396102466194L1004.899921905181,141.69321123353336L1005.0601288827299,153.44973609735638L1006.2852410639877,152.08579029833908L1007.0485801923096,148.8537797115784L1007.6328644633709,160.4528359836477L1009.5365003142481,166.08938062606993L1011.5437995035394,146.09367692094682L1017.4243379735757,161.05327911919974L1017.6128167706923,163.93521418821862L1019.5541483809928,161.84528531915802L1021.1939139159068,152.92044936365733L1022.607504894281,160.6288107136853L1022.7959836913976,162.6560890956488L1022.8242555109649,129.34708025591578L1023.4085397820264,155.31516459964791L1023.6252903987105,160.20293698875332L1023.6535622182778,142.02614428277678L1027.03675662652,146.30422182088392L1027.2817790627714,162.04248899865306L1033.0209584349705,159.3781740164984L1033.5769708864643,162.59244933405913L1033.595818766176,146.71077031339922L1033.8879609017067,161.38180209266557L1034.5570606314704,141.77848683877403L1036.762262557734,153.28466503711732L1037.6763847237494,153.41020757473055L1040.0135218079947,156.9380450827624L1044.0658159460004,159.87962862934322L1048.5798831369418,154.79170461479353L1048.9945364905982,155.03885364895646L1050.050017754451,157.19833213380946L1052.3871548386962,151.18034233019745L1053.3955164032698,144.7442106852513L1054.9598904193372,149.99311534657429L1056.1567307810271,140.95423936532853L1057.4478105412757,156.56433437386204L1057.9755511732021,159.47449639171742L1058.2771172485884,133.96979329716194L1058.9462169783521,144.54174449199127L1062.5273141235668,150.96473200917538L1063.3660447707352,147.58414748484543L1063.5827953874193,156.45361187530432L1066.6832715999867,158.90251059333733L1067.437186788453,158.28075411812173L1068.8884735262504,155.1986247481476L1069.5010296168791,156.73298680092125L1073.4402364766152,135.80326027282192L1074.7407401767193,140.21842155670345L1075.4004159666272,142.25039396298286L1076.060091756535,154.97819353887957L1077.1909645392345,156.82562335639963L1077.605617892891,144.8873481235886L1078.8872737132833,155.8528077077506L1079.4244382850657,151.72267359005514L1080.2631689322343,154.48122390868284L1080.7720616844488,149.62009756662394L1081.5259768729152,150.4358186175848L1082.5626102570561,154.9057187825365L1082.6568496556145,152.12727503656419L1084.0044730549978,133.34990162834302L1084.6924206644733,150.53181669056187L1086.5018171167922,157.30572070924774L1087.1614929067,148.59379204108197L1087.6232659596355,158.28624234239757L1089.8001960663316,152.0611653039798L1092.6368019629358,152.38747448076475L1096.886998837914,129.23711286729792L1097.885936462632,153.56212004606027L1097.9047843423436,150.90332911169176L1100.449248103417,155.1381780556602L1104.218824045748,159.32258344817367L1106.8763750850915,159.38061904938934L1107.0931257017755,155.70266394938946L1108.6198039584194,147.89544078060553L1109.628165522993,153.5581383794576L1110.1841779744868,142.5729973627459L1110.2689934331893,146.84025071277668L1110.938093162953,162.49478071485328L1111.6448886521403,150.9881877380149L1112.4270756601738,156.75244973443498L1113.1715669087841,147.56915451589327L1114.1233848342226,155.08828066655389L1114.3118636313393,152.13456489739818L1115.0280830603822,156.27812531013439L1115.5652476321645,150.31296185599408L1115.6689109705785,149.6767597330454L1119.6646614694494,158.2639650257657L1119.853140266566,151.9903368587209L1123.2834543740873,152.61407228049978L1125.1870902249643,133.76344525060043L1125.4886563003508,149.4772667728626L1125.9975490525655,154.24993047535693L1126.84570363959,150.67782613518926L1128.6833719114766,152.27978828886708L1128.9755140470072,150.4892684963311L1129.4938307390776,149.8388299174841L1129.8236686340317,112.88269836167939L1129.9179080325898,147.28990951122742L1131.755576304476,146.57759188241272L1134.168104907568,153.0600442515315L1134.6864215996386,116.79484421441242L1138.7387157376445,148.86327581824673L1141.8391919502117,155.51396733956318L1142.38578046185,146.50874924992243L1145.872638208506,147.98529604179083L1146.852727953512,155.31767688539406L1146.9846631114935,148.6155747935106L1147.1637179687543,152.82488075558248L1147.5500995028433,148.38942626145428L1147.682034660825,147.5165410127826L1147.8233937586624,150.45885398669506L1147.945904976788,144.7473035084645L1148.3134386311654,155.451412943589L1149.312376255883,154.4103239246921L1149.538550812423,148.02876115245593L1151.1594684676254,135.31392805746518L1152.7521143032602,142.39324398730423L1154.4107277178857,148.1193489365765L1155.277730184622,144.55196557634392L1155.9562538542414,142.55514096548436L1156.0881890122232,148.22620569162095L1160.0650916313823,141.84919317296473L1160.6022562031646,150.6943970296724L1161.7614008054313,146.8890605109109L1163.420014220057,147.2689849003642L1164.3624082056397,128.02932310838546L1165.33307401079,147.8428000608443L1168.4806699226363,138.24811003346L1174.7098941673385,138.85015320329268L1175.0868517615716,141.1168269556689L1175.397841776814,147.55560614549185L1177.1318467102863,147.30300142096593L1181.1652929685804,147.06380340218038L1182.4563727288287,139.4383941612443L1187.2814299350125,126.02879907766402L1188.6384772742515,147.18250743980823L1188.6479012141074,143.95333710016848L1189.1944897257454,148.98899372564497L1191.079277696911,134.38491003991172L1191.8237689455214,143.28544028709683L1194.1043623906316,127.58348663133839L1196.375531895886,137.1764758523303L1197.5817961974321,137.809400841769L1197.8927862126743,132.21693523020457L1198.6655492808522,133.77570840264434L1199.721030544705,131.39440410845495L1200.2864669360545,130.74461819750056L1201.3042524404839,133.9863935403177L1201.6435142752937,132.94064123323574L1201.8225691325545,131.68742985289967L1202.727267358714,135.05356657480564L1203.1419207123704,131.48041130267075L1207.034007872827,142.4403063927473L1207.420389406916,136.6106383396341L1208.2496961142288,136.64693576430898L1210.3418107622226,134.92204883591202L1211.783673560164,135.59679437922904L1213.5647981929158,128.93291301583568L1213.8286685088788,132.4436139470118L1219.058955128863,135.717266959469L1220.8871994608937,135.0420965361511L1221.254733115271,136.60632922042117L1223.1300971465805,133.91612395133274L1227.0881518860283,130.12969274489637L1228.4169274056999,124.75840994946654L1229.6043438275342,129.2568076335301L1231.03678268562,128.3739655381165L1233.2891043111629,119.1975498015164L1236.229373546181,130.22120706913984L1237.8031715021043,120.46916811599084L1237.8785630209509,124.03953250487882L1240.1026128269261,130.41165709585312L1241.205213790058,131.7292103757087L1243.8062211902663,125.42604808004452L1244.3056900026254,130.25394524881696L1247.6700365311556,135.46991502187964L1247.7831238094254,80.23079399608156L1250.1108369538151,134.4697369111645L1250.1768045328058,137.6301230160464L1251.1757421575237,129.06397517987207L1252.6929964743117,119.02302982956047L1253.5411510613362,130.79344885445096L1256.5945075746245,132.42003489527463L1258.2060012899708,127.46252025992774L1258.6677743429066,132.71394413671175L1259.025884057428,132.70771977289087L1259.346298012526,137.0867376867927L1259.7044077270475,120.54357216407124L1260.0719413814247,116.01599322852849L1261.165118404701,130.61449149267662L1261.5326520590781,123.18948655321998L1261.9001857134554,110.23045293168434L1262.032120871437,118.11186205761953L1262.192327848986,116.16364109310314L1263.2101133534154,124.61583648162053L1263.3985921505318,123.79330243697649L1263.7190061056301,115.78279030487641L1267.7336044842127,125.01538429165365L1269.5241530568198,128.03089388542767L1270.6173300800958,129.13608505266453L1272.690596848378,121.63327523285213L1272.963891104197,128.082531538747L1277.3083273777333,124.85443399777083L1279.7302799206811,129.32437974859863L1280.0035741765003,130.81945110062773L1280.5784345077057,130.24124594890196L1283.4433122238772,127.48112458350727L1285.0265341196562,118.36315561501101L1289.8233195062726,120.71149740359681L1289.96467860411,117.55252183750139L1292.7635887412907,116.3178979478289L1298.0692668801216,115.87068189083101L1298.6347032714714,121.68876806000358L1301.2545585513913,122.37629011603482L1301.2639824912471,124.47721923327049L1302.3100398152442,116.66646435999024L1302.5739101312072,120.25596774691286L1302.8566283268822,120.96233566638244L1303.243009860971,68.79959471534437L1304.3361868842471,115.21179525785055L1307.3141518786886,115.18442218091775L1307.7099573526334,119.89165798456804L1308.049219187443,120.67408278674486L1310.8010096253447,110.13725960500801L1311.0931517608753,113.23109063271193L1313.854366138633,107.04474561798617L1314.7307925452249,122.93255848639836L1314.8438798234947,117.17548786300267L1315.8333935083567,113.67893090528406L1318.933869720924,117.80875598066666L1323.4762087314327,117.14496721671657L1324.0322211829266,124.41925256179383L1324.2583957394666,117.95413825102543L1324.569385754709,116.53303355353586L1328.6876474717055,118.21408490661122L1329.30962750219,109.2911636766338L1329.5734978181533,116.60982486019356L1329.7808244949815,114.599705911309L1332.7305176698555,110.5958364374913L1334.4174029040487,116.92633675926595L1334.8791759569845,108.93539461687072L1334.9074477765516,116.61523513476737L1335.0111111149658,95.35574588440073L1335.4257644686222,114.14502968168051L1337.5461509361835,104.20016390366544L1339.873864080573,64.58968990502439L1350.749090674198,93.47000889279678L1352.2474971112745,97.40171728365692L1353.039108059164,80.87681218275225L1355.3762451434093,84.52223834682121L1355.875713955768,80.38568451685347L1356.9029234000534,78.78539586771132L1358.1563074008784,90.47197350794517L1359.8903123343507,75.95766654174668L1361.0965766358966,79.85643831862677L1361.5960454482556,87.40529136182226L1361.9918509222002,75.95945415985676L1363.0190603664855,72.71262443473353L1363.0850279454762,81.83059174504126L1363.3865940208627,83.49952888077172L1363.6881600962492,78.21530657191437L1364.2630204274549,89.05624933948752L1364.4326513448596,81.10900844478363L1366.4682223537184,86.06410200666079L1368.2776188060373,78.20224040582747L1369.2577085510434,87.98233401098702L1369.8419928221047,80.97873631344129L1371.4817583570186,89.83937367273768L1373.4419378470309,89.44390969146508L1373.809471501408,94.50876414284778L1376.2125761646441,91.16104262547418L1376.5895337588772,79.80466693159616L1377.8334938198464,89.15605688707979L1378.568561128601,85.67711159101555L1378.6628005271593,80.84934381984425L1378.7758878054292,89.27540042018762L1378.851279324276,79.026584806046L1379.115149640239,85.75532532336797L1379.5674987533187,87.44937678451714L1379.9727281671192,86.7745582495512L1381.1695685288094,90.85514474700221L1382.6020073868951,85.98799182873319L1383.5538253123339,77.32853559884217L1384.9014487117172,83.68158711988656L1384.9297205312846,89.39061865810345L1385.8155708777324,78.40429123636295L1387.2385857959623,85.49031125980241L1390.8856505201677,85.53011692877618L1391.1683687158425,83.88655538050665L1391.469934791229,87.30761209804348L1392.9871891080172,85.9181791453995L1393.552625499367,86.82558648327085L1393.7882239957626,81.37991245019458L1398.3117151265599,81.12623313426462L1398.4153784649739,85.55195577503184L1400.0928397593111,84.74087719719762L1400.3095903759952,83.36228178554279L1400.601732511526,82.81629026371735L1401.9399319710535,78.86582963765869L1402.0718671290351,77.8112914371672L1407.8770140802249,77.78940098634598L1409.4790838557155,72.65645954843455L1411.740829421114,50.63057147769723L1411.8916124588075,61.05888251333408L1413.1638443393442,91.19940365026599L1414.4737719793043,82.4119149170524L1415.5292532431567,87.23520563403366L1417.2067145374942,59.827596925197156L1417.5082806128805,80.3566465770545L1418.1868042825004,86.210386026391L1420.6370286450153,83.53498467393399L1422.022347803822,67.39103977655293L1425.4997816106224,90.84725606195502L1425.6222928287482,81.65113773839533L1426.4233277164935,61.23768064931676L1428.03482143184,59.45540269756805L1429.7688263653124,82.37464417022005L1429.9855769819965,74.01446019200927L1430.0326966812754,80.25836952968962L1430.221175478392,69.48580535848203L1431.22011310311,62.460071306598934L1434.4619484135146,83.22157869240493L1437.1760430919928,85.20228083506333L1439.5979956349406,79.44356448256178L1442.7738633663544,81.57998274484925L1443.442963096118,80.50291362218803L1444.1780304048727,85.22375584776341L1445.1581201498789,82.10606673696014L1447.1465714594583,70.78711876612743L1447.1936911587377,77.67883877974992L1447.335050256575,58.63274501343892L1450.444950408998,74.99056318973021L1450.7465164843845,89.93138759608576L1452.6030326359826,69.55964018269077L1454.770538802823,75.7244064135877" style="fill: none;" fill="none"></path></g></g></g></g></g></g><g transform="translate(58, 377)" clip-path="url(#clip_1)"><clipPath id="clip_1"><rect width="1454" height="23"></rect></clipPath><g><g><line x1="158.84687346854673" y1="0" x2="158.84687346854673" y2="5" style="visibility: inherit;" fill="rgb(0, 0, 0)" stroke="rgb(204, 204, 204)" stroke-width="1px"></line><line x1="347.3256705850987" y1="0" x2="347.3256705850987" y2="5" style="visibility: inherit;" fill="rgb(0, 0, 0)" stroke="rgb(204, 204, 204)" stroke-width="1px"></line><line x1="535.8044677016507" y1="0" x2="535.8044677016507" y2="5" style="visibility: inherit;" fill="rgb(0, 0, 0)" stroke="rgb(204, 204, 204)" stroke-width="1px"></line><line x1="724.2832648182026" y1="0" x2="724.2832648182026" y2="5" style="visibility: inherit;" fill="rgb(0, 0, 0)" stroke="rgb(204, 204, 204)" stroke-width="1px"></line><line x1="912.7620619347545" y1="0" x2="912.7620619347545" y2="5" style="visibility: inherit;" fill="rgb(0, 0, 0)" stroke="rgb(204, 204, 204)" stroke-width="1px"></line><line x1="1101.2408590513064" y1="0" x2="1101.2408590513064" y2="5" style="visibility: inherit;" fill="rgb(0, 0, 0)" stroke="rgb(204, 204, 204)" stroke-width="1px"></line><line x1="1289.7196561678584" y1="0" x2="1289.7196561678584" y2="5" style="visibility: inherit;" fill="rgb(0, 0, 0)" stroke="rgb(204, 204, 204)" stroke-width="1px"></line></g><g transform="translate(0, 8)"><text x="158.84687346854673" y="0" dx="0em" dy="0.95em" style="text-anchor: middle; visibility: inherit; font-family: &quot;Helvetica Neue&quot;, sans-serif; font-size: 12px; font-weight: 200;" fill="rgb(50, 49, 63)" stroke="none" stroke-width="1px">0</text><text x="347.3256705850987" y="0" dx="0em" dy="0.95em" style="text-anchor: middle; visibility: inherit; font-family: &quot;Helvetica Neue&quot;, sans-serif; font-size: 12px; font-weight: 200;" fill="rgb(50, 49, 63)" stroke="none" stroke-width="1px">20k</text><text x="535.8044677016507" y="0" dx="0em" dy="0.95em" style="text-anchor: middle; visibility: inherit; font-family: &quot;Helvetica Neue&quot;, sans-serif; font-size: 12px; font-weight: 200;" fill="rgb(50, 49, 63)" stroke="none" stroke-width="1px">40k</text><text x="724.2832648182026" y="0" dx="0em" dy="0.95em" style="text-anchor: middle; visibility: inherit; font-family: &quot;Helvetica Neue&quot;, sans-serif; font-size: 12px; font-weight: 200;" fill="rgb(50, 49, 63)" stroke="none" stroke-width="1px">60k</text><text x="912.7620619347545" y="0" dx="0em" dy="0.95em" style="text-anchor: middle; visibility: inherit; font-family: &quot;Helvetica Neue&quot;, sans-serif; font-size: 12px; font-weight: 200;" fill="rgb(50, 49, 63)" stroke="none" stroke-width="1px">80k</text><text x="1101.2408590513064" y="0" dx="0em" dy="0.95em" style="text-anchor: middle; visibility: inherit; font-family: &quot;Helvetica Neue&quot;, sans-serif; font-size: 12px; font-weight: 200;" fill="rgb(50, 49, 63)" stroke="none" stroke-width="1px">100k</text><text x="1289.7196561678584" y="0" dx="0em" dy="0.95em" style="text-anchor: middle; visibility: inherit; font-family: &quot;Helvetica Neue&quot;, sans-serif; font-size: 12px; font-weight: 200;" fill="rgb(50, 49, 63)" stroke="none" stroke-width="1px">120k</text></g><line x1="0" y1="0" x2="1454.40625" y2="0" fill="rgb(0, 0, 0)" stroke="rgb(204, 204, 204)" stroke-width="1px"></line></g></g></g></g></svg>